<svg version="1.1" xmlns="http://www.w3.org/2000/svg" viewBox="0 0 2029.3680932824807 601.3536212830952" width="4058.7361865649614" height="1202.7072425661904" filter="invert(93%) hue-rotate(180deg)">
  <!-- svg-source:excalidraw -->
  
  <defs>
    <style>
      @font-face {
        font-family: "Virgil";
        src: url("https://excalidraw.com/Virgil.woff2");
      }
      @font-face {
        font-family: "Cascadia";
        src: url("https://excalidraw.com/Cascadia.woff2");
      }
    </style>
  </defs>
  <g stroke-linecap="round" transform="translate(830.4671046151484 10) rotate(0 167.32368533374301 97.33733617972553)"><path d="M-0.66 -0.07 C132.99 -1.32, 265.15 -2.05, 333.62 -0.69 M334.68 0.87 C335.85 60.52, 334.29 122.09, 333.77 194.34 M333.32 195.3 C264.13 191.9, 191.12 193, -1.29 194.41 M0.01 195.4 C-2.6 156.25, -1.27 114.19, -1.61 -0.26" stroke="#000000" stroke-width="1.5" fill="none" stroke-dasharray="1.5 7"></path></g><g stroke-opacity="0.6" fill-opacity="0.6" transform="translate(908.2907899488914 15) rotate(0 89.5 13)"><text x="89.5" y="18" font-family="Virgil, Segoe UI Emoji" font-size="20px" fill="#000000" text-anchor="middle" style="white-space: pre;" direction="ltr">storage (optional)</text></g><g stroke-linecap="round" transform="translate(825.505593692887 251.44243718057078) rotate(0 169 100.5)"><path d="M0.68 -0.19 C73.85 -0.69, 144.46 0.15, 337.15 0.69 M339.46 0.06 C338.16 65.83, 339.12 134.38, 339.66 201.17 M338.56 200.49 C231.51 200.74, 125.48 201.91, -1.01 200.08 M-0.71 201.17 C1.42 153.09, 2.03 106.32, 1.54 -1.76" stroke="#000000" stroke-width="1.5" fill="none" stroke-dasharray="8 9"></path></g><g transform="translate(964.005593692887 421.4424371805708) rotate(0 30.5 13)"><text x="30.5" y="18" font-family="Virgil, Segoe UI Emoji" font-size="20px" fill="#000000" text-anchor="middle" style="white-space: pre;" direction="ltr">broker</text></g><g stroke-linecap="round" transform="translate(1332.4381606163768 147.80953851247) rotate(0 157.5 183)"><path d="M0.52 0.11 C90.51 1.08, 178.78 0.99, 315.78 -0.17 M314.96 -0.9 C314.2 93.56, 314.29 184.67, 314.75 367.1 M313.84 365.49 C213.63 364.56, 111.69 365.63, -0.49 366.47 M-0.11 366.59 C-0.09 225.67, 1.85 86.08, 0.06 -1.15" stroke="#000000" stroke-width="1.5" fill="none" stroke-dasharray="8 9"></path></g><g transform="translate(1395.9381606163768 482.80953851247) rotate(0 94 13)"><text x="94" y="18" font-family="Virgil, Segoe UI Emoji" font-size="20px" fill="#000000" text-anchor="middle" style="white-space: pre;" direction="ltr">replicate connector</text></g><g stroke-linecap="round" transform="translate(356.7967088198902 191.23322712946174) rotate(0 158 166)"><path d="M0.9 -1.32 C68.71 0.14, 134.52 0.91, 315.37 -0.62 M315.05 0.79 C313.37 86.35, 313.31 169.66, 315.41 330.68 M315.23 332.42 C249.01 331.63, 183.27 331.08, -0.44 331.23 M-0.82 332.64 C1.57 224.36, 1.93 118.07, -0.67 0.74" stroke="#000000" stroke-width="1.5" fill="none" stroke-dasharray="8 9"></path></g><g transform="translate(466.7967088198902 492.23322712946174) rotate(0 48 13)"><text x="48" y="18" font-family="Virgil, Segoe UI Emoji" font-size="20px" fill="#000000" text-anchor="middle" style="white-space: pre;" direction="ltr">craby bot</text></g><g stroke-linecap="round" transform="translate(1377.9769748722283 203.4970405645006) rotate(0 107 38)"><path d="M0 0 C0 0, 0 0, 0 0 M0 0 C0 0, 0 0, 0 0 M-0.87 6.38 C0.41 4.31, 2.86 3.38, 5.04 0.15 M0.01 6.08 C1.55 4.13, 3.49 2.52, 4.84 0.62 M1.36 11.8 C2.96 8.2, 5.87 6.44, 9.71 -0.3 M0.38 11.6 C4.41 8.22, 7.8 4.03, 10.84 -0.51 M-1.02 18.06 C7.53 11.39, 11.51 4.17, 16.56 -0.37 M-0.61 18.89 C4 13.15, 10.5 6.72, 15.38 -0.2 M1.63 24.72 C4.37 18.62, 7.75 13.59, 19.49 0.59 M-0.52 23.36 C5.77 17.25, 12.76 8.88, 20.76 -0.68 M-1.26 30.43 C5.68 21.16, 12.74 12.85, 24.68 1.02 M-0.26 31.22 C8.9 21.34, 16.7 9.81, 25.8 -0.5 M0.25 35.34 C13.52 24.39, 24.5 7.28, 31.64 -1.54 M0.34 37.59 C11.23 23.49, 22.67 9.8, 32.21 -0.2 M1.65 42.63 C12.78 31.52, 21.11 17.89, 38.41 -1.12 M0.31 41.97 C15.15 25.68, 28.56 9.05, 37.1 0.86 M0.55 48.2 C13.59 34.04, 28.06 14.96, 41.4 -1.92 M-0.81 49.8 C9.63 37.66, 18.42 28.08, 41.92 -0.17 M-0.05 54.74 C12.13 40.58, 20.21 31.73, 48.76 -0.98 M-0.59 54.53 C16.28 36.19, 31.68 18.57, 46.93 -0.33 M1.62 61.13 C22.65 36.01, 41.09 12.46, 52.31 1.24 M0.65 60.91 C14.95 43.53, 30.65 25.77, 54.07 0.46 M1.28 68.55 C13.82 49.74, 26.51 33.6, 56.82 -1.8 M0.18 67.09 C11.3 54.56, 22.91 39.73, 57.44 0.74 M1.3 74.13 C22.87 44.29, 48.52 13.4, 63.99 -1.33 M0.51 72.12 C19.11 53.05, 37.42 31.67, 64.26 0.78 M1.28 78.28 C14.65 61.38, 29 44.25, 69.72 0.11 M1.14 77.33 C16.58 60.25, 31.9 44.06, 69.25 -0.06 M6.03 78.6 C30.01 50.81, 53.46 20.34, 76.1 -1.98 M7.54 78.1 C20.67 59.45, 37.3 42.69, 73.61 -0.09 M14.26 76.02 C27.67 60.8, 43.71 42.74, 80.66 -0.63 M12.92 77.96 C27.62 59.5, 42.37 42.19, 79.43 0.13 M19.14 79.43 C35.71 58.66, 49.92 39.83, 84.37 -0.1 M17.84 77.12 C45.07 46.33, 71.91 16.2, 84.66 -1.01 M24.19 75.45 C42.75 53.92, 58.86 34.27, 88.91 1.55 M23.18 76.3 C41.7 56.17, 58.62 35.5, 89.53 -0.77 M28.7 77.96 C50.1 49.3, 76.45 23.16, 96.6 -2.18 M28.63 78.01 C45.49 56.79, 61.25 37.41, 95.46 -0.8 M35.6 77.34 C55.01 52.25, 75.11 26.38, 99.78 -0.85 M33.58 77.91 C59.48 47.72, 85.87 17.73, 101.56 0.19 M36.8 77.95 C60.75 51.57, 81.35 27.48, 104.65 -1.72 M39.57 78.08 C58.81 55.68, 77.47 31.87, 105.51 -0.25 M44.44 76.17 C60.27 60.29, 73.67 41.18, 112.66 -0.38 M44.59 77.12 C60.87 59.78, 77.13 40.11, 112.02 0.98 M47.56 78.09 C72.9 49.99, 97.32 21.45, 115.77 1.42 M48.77 77.68 C73.99 50.9, 96.48 23.6, 117.12 0.63 M52.71 77.1 C74.46 56.3, 91.34 34.66, 121.02 1.33 M54.11 78.05 C75.13 56.06, 93.1 33.71, 121.86 0.61 M59.19 76.01 C86.46 47.28, 113.33 16.75, 127.26 2.09 M60.79 78.2 C84.46 50.27, 109.29 20.7, 126.04 -0.39 M64.46 76.46 C81.6 62.37, 94.34 42.82, 132.35 1.6 M65.56 77.1 C89.52 48.96, 113.96 20.66, 132.5 -0.89 M71.95 76.27 C88.62 52.91, 111.41 30.67, 138.51 -1.68 M70.7 78.04 C93.82 49.01, 118.41 22.48, 137.53 0.74 M76.5 78.8 C90.3 57.87, 109.46 38.5, 144.23 0.67 M76.46 77.94 C97.78 52.58, 121.34 25.85, 143.83 -0.45 M80.17 78.37 C104.17 51.38, 124.65 26.55, 149.63 0.35 M82 76.65 C98.34 56.93, 115.69 37.05, 148.95 -0.63 M85.68 77.59 C111.42 48.16, 133.36 22.38, 152.31 1.74 M85.82 78.28 C103.73 57.48, 121.66 35.88, 154.21 0.04 M92.24 76.76 C111.01 56.01, 130.9 33.47, 160.78 -0.68 M92.69 76.5 C112.28 53.87, 134.31 28.2, 159.16 0.84 M96.93 79.24 C115.43 55.92, 132.47 37.94, 166.28 -1.05 M96.11 77.87 C110.79 61.09, 126.2 44.93, 164.48 -0.29 M102.59 76.81 C119.8 56.73, 134.02 40.36, 168.19 -0.67 M103.22 77.11 C120.7 56.57, 137.95 35.88, 168.47 0.58 M107.21 79.09 C126.66 56.84, 144.81 33.39, 173.9 1.34 M107.27 78.47 C124.52 58.18, 143.53 37.29, 175.93 0.71 M111.76 78.84 C133.73 52.17, 156.81 26.99, 180.17 1.43 M112.51 77 C136.51 50.38, 160.83 22.95, 180.66 -0.01 M117.58 77.42 C144.4 48.06, 169.46 15.82, 185 0.94 M118.7 77.89 C135.27 57.24, 152.72 37.29, 186.33 0.24 M122.3 78.1 C147.06 50.41, 166.22 24.05, 189.06 -0.43 M123.96 77.75 C145.39 51.59, 167.69 26.42, 190.98 0.54 M129.15 79.47 C144.45 62.77, 156.18 45.83, 195.47 0.67 M129.28 77.97 C149.41 55.28, 167.63 30.98, 195.92 0.53 M134.87 76.79 C149.46 58.17, 168.41 39.55, 203.28 0.67 M133.42 77.96 C150.12 57.85, 165.65 40.33, 202.16 -0.28 M139.08 79.39 C165.06 46.72, 193.9 17.2, 207.26 -1.59 M139.35 76.56 C155.49 58.28, 171.95 37.67, 207.39 -1.17 M144.15 76.02 C169.23 50.78, 193.44 21.42, 211.32 0.57 M145.22 77.26 C161.17 58.17, 175.42 41.16, 212.38 1.06 M148.6 76.27 C169.75 57.48, 186.85 35.35, 214.41 1.25 M150.74 77.57 C176.15 46.83, 200.94 17.84, 215.96 1.69 M154.26 76.62 C176.96 53.62, 197.83 30.28, 215.16 7.61 M155.51 77.06 C178.18 52.35, 201.19 25.18, 216.74 7.65 M159.01 78.15 C183.88 52.77, 204.56 26.12, 216.44 12.48 M160.72 76.93 C170.9 65.12, 184.35 52.02, 216.7 13.99 M165.34 76.09 C176.73 62.47, 189.4 51.24, 218.03 20.49 M164.87 77.56 C177.34 63.83, 188.56 51.64, 216.99 20.05 M171.66 78 C189.65 60.03, 206.83 40.15, 214 24.99 M172.04 76.59 C188.2 57.6, 206 36.06, 216.26 26.26 M177.61 77.12 C191.19 62.25, 204.66 45.93, 215.88 34.1 M176.37 78.23 C184.78 65.49, 195.32 54.72, 215.01 32.12 M179.97 77.73 C191.86 67.06, 202.44 53.83, 217.32 36.4 M180.93 76.54 C189.31 68.34, 196.97 58.87, 215.22 37.87 M186.03 76.58 C192.01 70.75, 198.13 62.07, 214.75 42.52 M186.22 76.82 C192.61 69.89, 199.61 63.96, 216.16 43.99 M193.43 76.19 C203.56 68.63, 209.92 56.45, 214.64 51.27 M193.07 76.81 C197.47 72.04, 201.51 65.93, 216.62 49.25 M195.6 78.3 C203.41 71.38, 208.81 67.35, 214.79 55.04 M197.1 78.12 C204.63 70.67, 211 61.47, 215.34 56.09 M201.66 77.17 C206.55 72.51, 207.91 70.37, 215.63 61.92 M203.6 77.44 C206.06 73.98, 208.4 71.33, 215.34 62.61 M208.91 77.25 C210.07 75.6, 213.55 71.74, 216.51 68.89 M208.15 77.82 C210.94 75.07, 213.59 71.57, 215.73 68.29" stroke="#fd7e14" stroke-width="0.5" fill="none"></path><path d="M-0.1 0.79 C63.46 0.7, 130.33 3.27, 213.66 -0.19 M-0.62 -0.21 C82.42 0.02, 164.55 -0.38, 213.28 0.77 M215.82 -1.34 C212.11 18.55, 213.44 37.73, 212.98 75.74 M213.12 0.59 C213.24 25.35, 212.98 51.06, 213.86 75.84 M213.43 74.78 C145.61 73.96, 79.77 76.74, 0.76 77.52 M213.13 75.34 C164.97 77.64, 115.68 76.82, -0.77 75.2 M0.73 74.73 C1.22 53.1, -1.25 31.22, 1.08 1.28 M-0.14 75.7 C0.42 49.9, 0.18 24.38, 0.41 -1" stroke="#000000" stroke-width="1" fill="none"></path></g><g transform="translate(1426.9769748722283 229.4970405645006) rotate(0 58 13)"><text x="58" y="18" font-family="Virgil, Segoe UI Emoji" font-size="20px" fill="#000000" text-anchor="middle" style="white-space: pre;" direction="ltr">http client </text></g><g stroke-linecap="round" transform="translate(1371.4970405645004 374.14868779617996) rotate(0 119 39)"><path d="M0 0 C0 0, 0 0, 0 0 M0 0 C0 0, 0 0, 0 0 M-0.98 5.94 C1.78 4.7, 3.18 2.34, 5.21 0.72 M-0.14 6.08 C1.33 4.99, 2.14 3.72, 4.88 0.52 M0.13 11.53 C3.4 9.25, 5.78 4.13, 11.28 0.84 M0.91 12.29 C3.5 9.04, 5.94 5.15, 11.2 -0.59 M1.56 18.08 C4.16 12.58, 9.66 7.69, 15.9 -0.66 M-1.04 18.74 C4.36 13.62, 7.23 9.2, 14.81 1.1 M-0.05 24.11 C6.84 14.79, 14.88 5.64, 21.21 -0.57 M-0.54 24.31 C5.54 17.37, 10.25 11.79, 21.05 0.66 M-1.42 29.76 C8.12 18.82, 17.86 9.09, 26.77 0.52 M0.37 31.33 C9.01 18.74, 18.27 8.07, 27.09 0.94 M1.4 38.85 C11.98 22.34, 23.5 7.95, 33 -1.05 M-0.37 36.79 C10.64 23.11, 22.28 10.73, 31.98 0.69 M1.77 44.38 C7.46 33.39, 19.42 20.34, 38.69 1.61 M1.09 42.01 C9.34 31.42, 18.81 22.02, 37.23 -0.17 M-0.93 50.15 C8.5 36.84, 17.44 25.6, 40.88 -0.64 M0.21 48.19 C11.3 35.99, 22.11 22.63, 41.77 0.69 M1.96 52.92 C14.91 38.52, 32.43 17.88, 48.25 0.33 M0.37 54.48 C14.02 39.42, 27.59 22.47, 48.35 -0.64 M1.68 59.74 C17.27 38.86, 34.83 20.74, 52.99 -0.65 M-0.71 61.25 C13.73 44.51, 29.83 27.91, 52.53 -1.01 M-0.63 66.09 C18.88 41.16, 40.38 16.18, 56.15 -0.68 M-0.7 68.21 C18.35 44.66, 37.63 23.36, 59.05 1.14 M-1.36 73.52 C23.59 42.59, 49.22 14.82, 63.53 0.56 M1.09 73.94 C18.3 54.08, 35.31 34.34, 62.84 -1 M-1.07 78.5 C17.55 56.33, 37.39 37.17, 67.09 -1.8 M0.05 78.71 C25.04 51.91, 48.76 24.02, 69.4 0.81 M5.33 79.54 C22.6 56.18, 44.22 34.68, 72.77 -0.45 M5.2 77.5 C30.66 49.55, 53.04 22.52, 73.75 -0.9 M10.17 80.15 C28.24 59.31, 48.57 35.86, 77.89 1.49 M11.81 78.95 C38.38 47.06, 65.24 15.47, 78.91 0.06 M17.99 79.11 C36.32 54.13, 59.03 27.62, 87.02 -0.18 M17.47 77.5 C31.22 62.32, 44.49 45.1, 84.78 -1.24 M22.34 77.12 C46.01 48.84, 72.93 20, 89.39 -1.34 M21.9 78.06 C38.83 57.85, 57.22 36.85, 90.61 0.59 M25.64 78.22 C51.28 52.43, 75.6 21.52, 94.69 -0.19 M27.94 77.29 C49.32 50.56, 72.79 24.4, 95.92 0.45 M32.57 79.1 C54.35 50.35, 79.07 22.03, 102.51 0.13 M31.93 78.9 C46.96 61.52, 63.04 44.05, 100.95 0.15 M37.28 79.29 C63.44 49.48, 90.62 15.1, 106.2 0.9 M38.04 79.75 C52.83 59.14, 69.44 39.99, 105.61 -0.33 M44.05 78.72 C59.56 57.38, 80.11 37.28, 110.24 1.24 M43.96 79.35 C58.96 60.78, 75.41 42.74, 111.88 0.5 M47.95 79.41 C72.46 51.33, 95.01 25.86, 117.44 0.17 M48.64 79.51 C63.44 61.37, 80.95 42.55, 116.12 -0.29 M54.06 79.53 C76.46 52.48, 101.65 24.56, 121.62 -1.72 M54.56 78.32 C67.46 61.77, 81.82 46.64, 122.79 -0.54 M58.81 78.86 C82.84 52.39, 104.93 28.58, 128.27 -0.65 M58.14 79.51 C72.08 61.14, 85.94 44.41, 126.16 0.63 M65.91 80.05 C77.76 62.18, 92.66 47.9, 133.75 0.46 M64.73 77.75 C85.36 53.7, 105.76 29.73, 132.58 0.85 M67.69 78.12 C93.51 52.13, 117.49 22.25, 138.68 1.39 M69.02 77.97 C89.58 55.49, 109.12 32.83, 136.94 -0.2 M73 77.72 C99.96 48.56, 124.48 22.59, 143.81 -2.05 M73.97 78.63 C90.25 59.3, 106.51 41.51, 143.59 0.54 M80.53 78.59 C93.6 62.39, 111.79 43.98, 147.38 -0.59 M79.26 79.11 C105.25 49.02, 133.47 16.9, 148.78 0.83 M86.77 76.91 C103.74 57.09, 122.79 35.95, 153.02 1.84 M86.22 78.95 C112.02 48.23, 136.58 20.24, 153.62 0.43 M91.3 78.63 C107.27 60.6, 122.47 43.39, 159.12 1.49 M90.29 79.21 C105.83 60.76, 120.9 44.61, 158.48 0.4 M96.74 76.93 C109.63 63.14, 126.09 44.58, 162.68 0.17 M95.92 77.76 C112.11 61.18, 125.9 44.58, 163.96 0.44 M102.05 77.52 C118.12 59.11, 137.5 34.72, 168.73 -1.37 M101.03 78.58 C121.37 53.75, 142.47 29.89, 169.31 0.2 M106.48 80.05 C125.73 54.93, 146.79 32.13, 174.15 -2.09 M105.95 79.11 C132.68 48.91, 157.32 21.69, 175.37 0.54 M110.88 79.48 C136.65 51.26, 160.97 23.56, 181.1 0.76 M111.85 79.55 C139.21 49.3, 165.14 18.51, 181.01 0.94 M117.63 79.44 C135.68 55.55, 155.95 34.63, 184.85 0.96 M117.68 78.12 C138.94 53.02, 160.95 28.67, 186.06 0.72 M123.97 77.66 C140.12 55.07, 159.27 34.16, 191.18 0.76 M122.6 78.48 C147.52 49.69, 171.57 22.27, 189.77 0.4 M129.9 79.25 C142.82 60.07, 158.01 42.91, 196.25 0.18 M128.93 78.92 C145.95 55.18, 165.7 34.48, 195.72 -1.01 M131.54 78.17 C155.16 54.06, 176.64 31.2, 199.97 -1.54 M132.59 77.77 C158.7 48.36, 185.51 19.16, 202.28 -0.65 M137.03 78.53 C162.14 52.78, 185.03 23.46, 205.9 -0.65 M138 78.66 C162.5 49.43, 188.59 21.08, 207.52 -0.58 M143.89 80.04 C168.66 50.77, 191.5 24.12, 210.57 0.59 M144.59 77.85 C167.56 50.5, 192.68 23.41, 211.67 -0.39 M150.21 80.05 C175.75 49.24, 199.57 19.36, 219.41 -0.81 M149.01 78.3 C172.98 49.48, 199.28 20.11, 218.07 0.08 M155.37 79.24 C180.82 51.35, 204.8 20.26, 224.1 0.86 M154.88 79.19 C171.49 59.39, 188.58 40.06, 223.56 0.04 M160.63 79.22 C176.97 58.04, 194.58 38.1, 226.44 1.36 M158.5 79.55 C175.05 63.11, 189.83 45.14, 227.47 -0.91 M164.4 76.67 C191.46 49.57, 218.25 20.94, 231.76 -0.11 M165.15 78.26 C191.9 49.01, 219.28 18.23, 234.02 0.51 M171.59 80.7 C185.68 63.98, 196.08 45.21, 240.08 1.21 M169.52 79.42 C190.73 53.78, 212.94 29.89, 238.63 1.35 M177.47 78.2 C190.13 62.43, 201.78 49.94, 237.57 7.29 M174.61 77.59 C195.18 54.86, 214.73 32.02, 238.36 5.99 M181.09 79.28 C197.55 59.9, 211.89 43.25, 236.93 12.84 M180.24 79.2 C203.4 53.06, 225.86 26.82, 237.4 11.61 M185.12 78.59 C204.92 54.75, 224.27 32.15, 236.2 18.3 M185.91 77.74 C207.08 56.4, 226.51 32.98, 238.93 19.15 M193.22 80.73 C206.14 60.97, 221.32 43.55, 236.68 25.41 M191.3 79.2 C202.71 64.51, 216.68 49.06, 238.11 24.76 M197.95 77.58 C207.8 68.82, 213.97 56.37, 239.59 30.83 M197.18 79.29 C210.62 61.99, 223.83 46.35, 237.78 31.44 M202.11 77.74 C213.31 64.65, 227.84 48.22, 237.26 36.31 M201.83 78.79 C210.77 68.25, 220.82 55.96, 238.75 37.04 M206.64 79.82 C218.05 66.76, 228.04 56.07, 238.54 42.01 M208.01 78.86 C218.13 66.34, 226.57 55.32, 238.22 43.61 M211.97 77.92 C219.54 69.72, 227.6 57.42, 240 48.66 M213.39 78.34 C218.34 71.87, 224.49 66.19, 238.09 49.47 M217.91 78.91 C226.77 70.21, 233.42 60.93, 238.57 55.16 M217.47 79.08 C223.7 72.15, 229.21 63.79, 238.66 54.71 M225.05 79.86 C227.27 72.99, 230.88 69.42, 236.24 60.23 M224.03 79.26 C226.05 75.34, 231.11 69.57, 238.35 60.84 M230.11 77.6 C232.56 74.7, 234.54 70.26, 239.08 68.12 M228.25 78.56 C231.4 75.35, 233.23 73.43, 238.15 66.83 M233.72 78.08 C234.65 76.68, 236.77 75.88, 238.72 72.88 M233.93 78.41 C235.24 76.75, 237.16 74.61, 238.66 73.67" stroke="#fd7e14" stroke-width="0.5" fill="none"></path><path d="M-1.15 -1.06 C49.44 0.5, 96.65 -1.08, 239.4 -0.61 M0.24 0.26 C74.82 0.36, 148.52 1.21, 237.5 -0.68 M236.73 0.31 C238.77 22.23, 237.69 41.74, 238.73 77.6 M237.39 -0.22 C236.45 25.14, 237.17 50.3, 238.14 78.06 M236.83 76.66 C174.78 77.93, 112.1 78.07, -1.18 77.49 M238.1 78.17 C147.99 75.88, 57.33 75.73, -0.01 78.24 M1.43 77.81 C-1.32 49.62, 0.79 21.25, 0.84 -1.93 M-0.31 77.89 C-0.44 60.79, 0.53 41.87, 0.29 -0.02" stroke="#000000" stroke-width="1" fill="none"></path></g><g transform="translate(1405.9970405645004 401.14868779617996) rotate(0 84.5 13)"><text x="84.5" y="18" font-family="Virgil, Segoe UI Emoji" font-size="20px" fill="#000000" text-anchor="middle" style="white-space: pre;" direction="ltr">webhoooks server</text></g><g stroke-linecap="round" transform="translate(1808.3680932824807 123.57138446259023) rotate(0 105.5 215)"><path d="M1 1.47 C72.46 0.98, 147.08 0.53, 211.24 -1.24 M0.23 -0.13 C57.47 0.2, 115.86 -1.29, 210.73 0.8 M211.03 0.64 C209.06 100.09, 209.96 200.25, 211.24 429.09 M210.55 -0.04 C209.57 154.4, 209.72 308.99, 210.82 429.83 M211.09 431.38 C163.12 430.05, 112.47 427.98, 1.38 428.26 M210.96 429.36 C162.89 429.58, 116.31 430.63, 0.63 430.32 M-0.54 430.33 C-1.03 328.95, -1.15 225.58, -0.77 -0.15 M-0.28 430.19 C0.9 313.52, 0.84 198.05, -0.36 0.36" stroke="#000000" stroke-width="1" fill="none"></path></g><g transform="translate(1850.8680932824807 326.32138446259023) rotate(0 63 12)"><text x="63" y="17" font-family="Virgil, Segoe UI Emoji" font-size="20px" fill="#000000" text-anchor="middle" style="white-space: pre;" direction="ltr">replicate.com</text></g><g stroke-linecap="round" transform="translate(10 133.3536212830952) rotate(0 108 229)"><path d="M-0.34 -0.19 C52.62 -2.21, 102.54 -2.8, 215.58 0.5 M-0.71 0.76 C70.93 -0.43, 142.65 1.07, 215.42 -0.56 M215.52 -0.12 C216.41 144.23, 216.28 287.99, 216.56 457.43 M215.93 -0.07 C214.2 127.27, 213.98 254.33, 215.67 457.67 M216.76 459.52 C167.22 458.95, 122.26 457.76, -1.32 458.22 M215.23 457.21 C146.81 456.87, 78.27 456.94, -0.55 458.62 M0.51 458.6 C1.51 324.05, 0.41 191.78, -0.28 -0.29 M0.19 457.53 C1.32 325.81, 0.85 193.96, 0.1 0.32" stroke="#000000" stroke-width="1" fill="none"></path></g><g transform="translate(49.5 350.1036212830952) rotate(0 68.5 12)"><text x="68.5" y="17" font-family="Virgil, Segoe UI Emoji" font-size="20px" fill="#000000" text-anchor="middle" style="white-space: pre;" direction="ltr">Telegram API</text></g><g stroke-linecap="round"><g transform="translate(234.06334851218526 261.69137988431726) rotate(0 78.54455509153934 2.180776893549819)"><path d="M-0.13 1.01 C26.16 1.42, 132.34 2.12, 158.75 2.25 M-1.66 0.49 C24.35 1.14, 130.5 3.46, 157.57 3.87" stroke="#000000" stroke-width="1" fill="none"></path></g><g transform="translate(234.06334851218526 261.69137988431726) rotate(0 78.54455509153934 2.180776893549819)"><path d="M130.87 12.87 C140.36 8.49, 150.49 6.74, 158.19 4.39 M128.59 12.78 C137.07 11.48, 144.81 7.16, 157.73 3.9" stroke="#000000" stroke-width="1" fill="none"></path></g><g transform="translate(234.06334851218526 261.69137988431726) rotate(0 78.54455509153934 2.180776893549819)"><path d="M131.26 -7.65 C140.56 -4.16, 150.54 1.96, 158.19 4.39 M128.98 -7.73 C137.18 -3.18, 144.81 -1.64, 157.73 3.9" stroke="#000000" stroke-width="1" fill="none"></path></g></g><g stroke-linecap="round"><g transform="translate(1595.6188760288082 242.67574965931453) rotate(0 104.14768370765933 -0.6168040466761795)"><path d="M0.34 0.37 C35.36 0.15, 174.63 -1.48, 209.23 -1.6 M-0.94 -0.48 C34.02 -0.49, 173.24 0.12, 208.45 -0.16" stroke="#000000" stroke-width="1" fill="none"></path></g><g transform="translate(1595.6188760288082 242.67574965931453) rotate(0 104.14768370765933 -0.6168040466761795)"><path d="M180.88 10.65 C186.48 6.05, 194.99 4.12, 206.83 -0.77 M180.42 10.16 C191.98 5.78, 202.25 2.63, 208.25 0.08" stroke="#000000" stroke-width="1" fill="none"></path></g><g transform="translate(1595.6188760288082 242.67574965931453) rotate(0 104.14768370765933 -0.6168040466761795)"><path d="M180.86 -9.88 C186.41 -9.76, 194.93 -6.97, 206.83 -0.77 M180.4 -10.36 C191.83 -6.72, 202.11 -1.84, 208.25 0.08" stroke="#000000" stroke-width="1" fill="none"></path></g></g><g stroke-linecap="round"><g transform="translate(1803.9769748722279 428.96629242672634) rotate(0 -97.0764085418449 -0.9024724942870535)"><path d="M0.31 -0.17 C-32.16 -0.27, -162.04 0.15, -194.46 -0.18 M-0.99 -1.31 C-33.12 -1.75, -160.48 -1.74, -192.27 -1.76" stroke="#000000" stroke-width="1" fill="none"></path></g><g transform="translate(1803.9769748722279 428.96629242672634) rotate(0 -97.0764085418449 -0.9024724942870535)"><path d="M-164.36 -13.64 C-171.55 -9.76, -184.18 -5.81, -190.44 -3.09 M-163.45 -12.51 C-170.85 -9.21, -177.58 -6.92, -193.15 -1.16" stroke="#000000" stroke-width="1" fill="none"></path></g><g transform="translate(1803.9769748722279 428.96629242672634) rotate(0 -97.0764085418449 -0.9024724942870535)"><path d="M-164.37 6.88 C-171.62 4.02, -184.25 1.22, -190.44 -3.09 M-163.46 8.01 C-170.88 6.46, -177.61 3.91, -193.15 -1.16" stroke="#000000" stroke-width="1" fill="none"></path></g></g><g stroke-linecap="round"><g transform="translate(391.15113304132547 433.7470105310538) rotate(0 -76.65572132751066 -0.6212577647048647)"><path d="M1.09 -0.8 C-24.48 -1.18, -128.62 -2.42, -154.41 -2.63 M0.21 1.39 C-24.89 1.27, -126.33 -0.1, -152.1 -1" stroke="#000000" stroke-width="1" fill="none"></path></g><g transform="translate(391.15113304132547 433.7470105310538) rotate(0 -76.65572132751066 -0.6212577647048647)"><path d="M-125.02 -11.9 C-129.63 -8.2, -134.93 -7.16, -152.36 -0.27 M-123.09 -11.23 C-131.84 -9.04, -139.67 -5.62, -152.25 -0.86" stroke="#000000" stroke-width="1" fill="none"></path></g><g transform="translate(391.15113304132547 433.7470105310538) rotate(0 -76.65572132751066 -0.6212577647048647)"><path d="M-125.48 8.62 C-129.93 7.82, -135.13 4.36, -152.36 -0.27 M-123.55 9.29 C-132.22 5.73, -139.92 3.41, -152.25 -0.86" stroke="#000000" stroke-width="1" fill="none"></path></g></g><g transform="translate(714.6276301533264 340.4740154367287) rotate(0 40.5 13)"><text x="0" y="18" font-family="Virgil, Segoe UI Emoji" font-size="20px" fill="#000000" text-anchor="start" style="white-space: pre;" direction="ltr">channels</text></g><g stroke-linecap="round" transform="translate(398.70361635822223 222.3723698466738) rotate(0 110.5 30)"><path d="M0 0 C0 0, 0 0, 0 0 M0 0 C0 0, 0 0, 0 0 M-0.07 6.97 C1.22 3.92, 3.63 2.6, 5.4 -0.4 M-0.52 6.47 C1.42 5.24, 2.03 3.29, 5.12 0.71 M1.7 12.39 C4.46 6.98, 9.07 3.29, 11.46 -0.1 M0.76 12.57 C4.16 7, 7.22 3.54, 11.07 0.18 M-0.6 17.54 C4.77 12.56, 11.58 6.28, 16.61 -1.48 M-1.11 18.91 C5.23 11.76, 10.3 6.48, 15.31 0.29 M0.06 23.79 C6.86 19.72, 11.74 12.95, 19.76 0.05 M0.62 24.69 C6.69 17.2, 12.98 9.09, 20.94 -0.22 M-1.72 28.54 C6.92 23.67, 14.99 12.48, 24.73 -1.67 M-0.45 31.4 C6.86 22.22, 14.34 15.55, 26.97 0.15 M-1.44 34.99 C12.84 24.65, 26.07 9.44, 32.45 -0.05 M-1.16 36.68 C12.27 23.01, 23.07 9.8, 32.47 -0.46 M1.06 41.06 C10.27 29.05, 22.65 19.02, 35.28 0.89 M0.69 42.37 C10.16 30.35, 20.24 18.37, 36.77 0.5 M-0.95 48.34 C15.94 31.66, 32 12.6, 41.63 -0.87 M-0.26 48.48 C15.47 29.66, 33.11 10.99, 42.02 -0.34 M-1.15 55.39 C12.63 39.72, 22.72 25.43, 46.1 -0.72 M0.93 53.59 C12.73 41.84, 24.58 26.97, 47.24 -0.54 M2.63 61.66 C15.84 43.31, 30.77 26, 54.1 1.2 M0.24 59.84 C16.5 40.48, 33.84 20.92, 52.89 -0.23 M6.98 61.84 C21.44 40.38, 37.2 23.8, 59.98 0.64 M5.19 60.29 C24 39.11, 42.2 18.09, 58.94 -0.35 M12.52 60.28 C27.32 42.15, 43.7 19.11, 63.63 -2.17 M10.43 60.45 C29.44 38.98, 46.65 19.63, 63.4 -1.03 M14.44 60.84 C34.86 42.77, 52.99 20.27, 68.64 -1.84 M16.16 61.17 C33.83 42.29, 48.67 22.94, 68.43 0.15 M21.85 61.47 C43.21 36.82, 59.3 15.77, 74.9 0.74 M21.45 60.32 C37.07 42.46, 52.08 26.24, 74.89 -0.18 M27.93 58.91 C40.62 44.79, 53.59 27.94, 80.74 -0.9 M26.31 60.48 C38.43 48.91, 49.89 35.27, 80.36 0.51 M34.53 61.24 C41.98 48.66, 52.99 36.48, 83.54 -2.26 M32.27 60.63 C43.58 47.45, 56.13 35.55, 85.75 0.35 M38.33 60.59 C49.71 46.31, 61.06 33.16, 89.87 0.8 M38.41 59.86 C52.1 43.4, 67.29 27.36, 89.35 0.74 M43.41 61.67 C61.05 41.6, 78.03 19.95, 96.11 0.68 M43.93 61.01 C58.04 44.11, 71.17 28.24, 95.38 0.06 M47.44 58.48 C63.12 43.49, 81.67 24.39, 102.58 -1.36 M48.23 60.44 C62.14 42.72, 76.52 26.4, 100.08 -0.66 M53.61 59.64 C70.8 38.3, 91.83 19.44, 106.13 1.47 M52.82 60.35 C65.28 48.48, 75.92 34.99, 106.24 -0.07 M60.03 61.26 C71.27 43.87, 88.24 27.42, 110.32 -1.92 M58.61 60.81 C77.32 40.28, 93.86 20.06, 111.28 -0.75 M65.17 59.85 C81.91 37.86, 103.56 17.38, 117.36 0.86 M63.33 61.7 C78.21 44.58, 91.06 29.15, 117.14 1.15 M67.78 61.66 C80.8 46.47, 93.01 33.17, 121.52 -1.39 M69.38 61.05 C86.69 41.81, 101.63 22.64, 121.67 -0.1 M73.08 59.32 C94.65 36.91, 114.29 15.97, 126.51 1.38 M73.93 60.86 C89.69 43.87, 104.54 24.82, 127.9 0.11 M81.33 60.46 C96.37 42.4, 108.38 26.5, 133.51 1.83 M79.44 60.68 C92.66 46.54, 104.19 32.04, 132.02 -0.83 M85.96 60.37 C100.4 44.36, 112.18 26.6, 139.24 -0.11 M85.76 61.37 C106.44 37.47, 127.58 12.55, 137.4 0.95 M90.23 58.54 C100.06 47.39, 113.34 34.81, 144.59 -0.64 M90.69 60.71 C102.52 47.01, 115.5 31.64, 143.16 -0.56 M97.33 59.38 C111.53 41.59, 124.54 24.56, 148.78 0.56 M96 61.19 C114.81 39.41, 131.62 19.94, 148.22 0.52 M102.99 60.8 C117.88 39.33, 136.48 21.27, 153.97 0.91 M102.07 59.6 C114.33 46.24, 128.02 31.57, 153.89 -0.46 M105.66 58.82 C121.3 39.91, 137.97 23, 159.35 -0.39 M105.87 60.79 C124.2 39.46, 141.6 20.33, 157.94 1.12 M111.06 60.22 C132.33 37.68, 149.54 16.65, 165.81 -1.77 M111.57 59.3 C127.84 42.71, 144.57 23.52, 165.11 0.75 M118.36 59.19 C139.63 35.43, 159.14 11.64, 170.05 1.35 M116.59 61.09 C129.51 46.52, 140.43 32.54, 169.21 0.54 M120.8 61.86 C136.48 43.15, 155.49 26.7, 173.21 1.17 M122.18 59.21 C134.34 47.34, 145.27 33.95, 175.69 -1.16 M127.79 59.06 C137.69 47.25, 150.41 31.12, 178.97 2.14 M127.45 61.48 C144.29 41.15, 162.15 21.04, 179.68 0.03 M133.54 58.82 C143.45 46.75, 158.03 33.22, 186.2 1.59 M133.95 60.21 C150.24 39.3, 169.02 19.54, 186.56 0.06 M139.21 59.08 C153.26 45.14, 163.64 28.29, 191.1 -1.62 M137.74 59.83 C157.07 38.06, 175.7 16.87, 190.05 0.31 M145.52 60.27 C162.46 40.83, 179.1 17.15, 195.76 1.46 M143.94 60.64 C163.27 39.45, 180.79 19.06, 196.7 -0.89 M146.87 61.95 C166.86 35.85, 189.35 15, 202.38 -1.44 M148.81 60.46 C164.57 41.88, 182.21 23.09, 202.04 -0.43 M155.95 59.43 C173.7 36.28, 196.79 15.93, 205.8 0.78 M154.26 60.31 C169.78 41.88, 185.37 24.61, 207.08 -0.84 M157.9 60.42 C170.68 43.06, 184.16 31.91, 211.69 -0.77 M160.01 60.16 C174.36 45, 187.11 30.65, 212.41 -0.53 M166.93 61.6 C179.08 42.28, 195.58 27.04, 217.15 1.63 M166.04 60.52 C183.05 39.14, 201.18 16.84, 216.73 -0.15 M168.42 61.32 C188.56 39.4, 209.48 16.44, 220.19 1.74 M170.74 60.22 C182.32 45.01, 195.41 30.11, 222.29 -0.11 M174.9 60.9 C185.83 46.59, 196.51 33.87, 221.05 7.7 M174.78 60.77 C187.84 44.92, 201.68 29.88, 222.15 6.84 M179.45 61.55 C190.17 48.23, 199.59 38.52, 223.44 13.34 M180.44 60.35 C191.51 48.75, 200.28 37.82, 221.32 11.98 M185.15 61.23 C200.48 42.98, 213.46 28.38, 222.84 18.16 M184.99 59.76 C198.6 45.85, 210.71 31.56, 221.04 19.69 M192.97 60.04 C200.42 50.28, 209.7 38.84, 222.99 23.42 M190.56 60.78 C196.88 53.02, 203.58 46.08, 221.19 24.51 M195.98 60.84 C204.58 51.25, 210.92 44.34, 222.11 32.76 M196.23 59.94 C206.43 49.5, 216.53 38.12, 222.45 30.92 M203.89 61.82 C205.4 56.31, 210.72 48.08, 220.8 37.55 M202.59 60.17 C208.93 52.27, 216.86 44.26, 222.12 37.74 M205.25 61.25 C211.1 53.12, 215.79 50.07, 223.47 41.81 M207.77 60.47 C212.39 54.55, 218.18 48.94, 221.53 44.05 M212.22 61.45 C215.68 58.43, 216.96 56.45, 223.16 50.66 M212.22 59.84 C216.03 56.13, 220.08 52.2, 221.47 49.33 M217.67 60.44 C219.04 59.52, 220.44 58.11, 221.58 54.77 M217.7 60.4 C219.13 58.9, 220.93 56.42, 221.93 55.25" stroke="#228be6" stroke-width="0.5" fill="none"></path><path d="M-0.03 -1.03 C45.66 -1.67, 91.53 -0.39, 222.37 -0.64 M0.78 0.38 C77.09 0.09, 155.02 -0.02, 221.62 -0.69 M220.4 1.31 C222.28 17.37, 219.05 35.04, 219.69 59.36 M220.42 0.16 C221.58 16.54, 222.01 33.2, 221.74 60.73 M222.61 58.79 C158.29 58.7, 94.25 60.41, -0.76 60.76 M220.87 59.75 C146.23 58.19, 70.54 59.55, -0.21 60.37 M-0.13 60.86 C-0.39 47.49, -0.98 31.79, -1.4 0.77 M0 59.2 C0.34 47.04, -0.35 33.18, 0.14 -0.63" stroke="#000000" stroke-width="1" fill="none"></path></g><g transform="translate(460.20361635822223 239.3723698466738) rotate(0 49 13)"><text x="49" y="18" font-family="Virgil, Segoe UI Emoji" font-size="20px" fill="#000000" text-anchor="middle" style="white-space: pre;" direction="ltr">cmd REPL</text></g><g stroke-linecap="round" transform="translate(395.8197339476626 383.260528821427) rotate(0 112 43.5)"><path d="M0 0 C0 0, 0 0, 0 0 M0 0 C0 0, 0 0, 0 0 M-1.03 7.13 C1.63 4.37, 2.03 3.37, 5.72 0.18 M-0.25 6.77 C1.98 3.85, 4.14 1.21, 4.95 0.02 M-1.16 10.7 C4.11 7.34, 7.62 4.55, 11.22 -1.42 M-0.39 12.56 C3.69 7.27, 6.92 3.1, 10.15 0.27 M-0.66 18.26 C3.43 14.55, 5.08 10.31, 14.15 -0.28 M-0.1 18.14 C5.03 11.93, 9.44 6.74, 14.95 0.82 M2.17 22.81 C7.22 18.25, 10.01 12.46, 20.07 1.32 M0.2 23.8 C7.22 17.08, 13.9 8.02, 21.61 -0.8 M0.91 29.92 C5.93 25.08, 9.31 17.8, 25.68 1.34 M0.19 29.76 C5.37 23.35, 12.37 15.53, 25.85 -0.46 M0.65 38.5 C10.63 24.25, 22.39 11.8, 31.04 0.7 M0.62 36.08 C7.87 27.75, 14.89 19.78, 32.27 -1.1 M-1.6 42.16 C10.03 32.28, 18.31 20.17, 37.08 0.44 M0.89 42.41 C12.82 27.13, 27.43 11.76, 36.68 0.78 M-0.32 50.83 C12.97 34.49, 24.37 21.91, 41.49 -1 M0.77 49.52 C11.99 34.3, 25.03 20.65, 43.07 0.32 M1.77 52.85 C15.28 37.16, 27.32 20.33, 48.08 1.63 M0.69 55.36 C10.45 42.44, 21.31 30.7, 48.01 -0.31 M-0.91 60.39 C22.01 39.2, 41.05 15.09, 54.68 1.78 M0.18 60.4 C18.38 38.08, 38.62 16.19, 53.58 -0.64 M-1.62 67.56 C13.94 51.97, 29.48 36.06, 58.48 -1.56 M0.12 67.65 C11.24 51.73, 25.56 37.14, 57.86 -0.55 M-0.58 71.99 C18.85 51.63, 35.57 31, 63.94 1.54 M0.5 72.26 C20.11 51.48, 38.61 29.6, 63.8 -1.02 M-0.38 80.54 C21.28 52.04, 45.94 28.28, 68.13 1.34 M0.13 79.08 C18.35 57.36, 38.24 35.94, 69.73 -0.73 M1.28 83.34 C14.38 66.68, 29.94 49.18, 72.65 1.73 M0.88 84.69 C24.73 58.74, 48.81 30.01, 74.24 -0.85 M2.92 88.96 C27.94 58.51, 57.58 27.25, 80.95 1.73 M2.14 88.5 C18.66 70.78, 37.09 50.76, 78.61 0.39 M8.55 88.79 C25.46 64.85, 45.62 41.98, 86.26 0.73 M7.11 89.01 C29.83 61.58, 54.77 34.17, 85.82 -1.12 M13.07 90.92 C31.9 68.07, 50.68 44.12, 88.92 -0.03 M13.29 89.74 C42.84 54.33, 73.28 19.29, 90.93 0.07 M18.04 88.47 C47.21 53.6, 78.36 18.17, 96.29 -0.16 M17.32 89.39 C40.68 61.68, 63.38 34.62, 96 0.2 M21.78 88.77 C48.19 62.27, 71.94 34.51, 100.09 1.33 M24.11 89.02 C37.99 70.56, 55.22 52.27, 100.58 -0.36 M27.24 90.69 C59.06 56.03, 85.3 23.05, 104.31 -0.67 M29.77 89.28 C56.15 55.14, 84.55 24.84, 106.64 0.18 M35.38 90.04 C61.61 57.04, 89.92 21.98, 110.56 0.05 M34.1 89.79 C50.76 70.26, 66.95 52.16, 110.96 0.41 M41.03 88.92 C55.65 71.6, 71.08 51.2, 117.3 -0.87 M39.46 88.39 C65.88 58.2, 93.41 26.44, 115.47 -0.32 M46.27 89.15 C61.74 71.14, 75.9 51.67, 120.5 -0.73 M45.26 88.52 C62.26 67.67, 82 47.9, 122.91 -0.25 M48.31 89.57 C69.15 66.2, 87.38 47.19, 126.28 -0.13 M50.86 88.47 C75.51 58.83, 102.55 28.9, 126.61 0.32 M56.89 87.49 C83.14 55.85, 109.92 24.72, 134.15 -0.89 M56.04 88.73 C73.29 68.93, 90.56 48.15, 132.74 -0.93 M62.08 87.99 C90.01 57.03, 114.41 24.89, 138.35 -0.63 M59.91 89.28 C88.72 53.89, 119.06 20.16, 136.72 1.01 M67.75 89.37 C87.78 62.37, 111.89 37.98, 143.79 0.58 M65.37 88.94 C84.58 67.46, 101.77 46.68, 142.23 -0.22 M71.37 88.46 C97.85 59.44, 119.98 31.52, 147.34 1.62 M72.02 88.63 C99.66 56.16, 126.64 24.18, 147.56 0.96 M77.43 90.04 C92.78 67.95, 112.75 45.83, 153.78 1.66 M76.62 88.73 C107 54.16, 137.86 18.54, 154.63 -0.65 M80.63 88.95 C112.64 54.98, 144.84 18.78, 157.14 1.57 M81.4 89.11 C110.15 58.17, 137.49 27.49, 159.37 0.37 M86.57 87.7 C113.44 55.15, 143.44 26.69, 164.55 1.27 M87.68 88.69 C115.13 56.42, 143.32 24.56, 164.67 -0.72 M92.35 90.12 C107.05 70.28, 125.09 51.32, 169.68 1.1 M91.71 89.07 C110.15 69.74, 127.04 49.19, 168.84 0.52 M97.86 87.47 C126.01 57, 154.81 23.82, 176.57 -0.76 M96.86 88.47 C119.98 63.05, 143.01 37.12, 174.53 -0.93 M103.1 87.82 C123.98 63.29, 147.24 34.95, 181 1.03 M102.11 89.16 C122.95 64.52, 142.98 42.46, 179.16 -0.31 M108.08 89.41 C133.61 61.76, 157.42 30.81, 186.39 0.36 M108.97 88.71 C127.46 66.38, 146.21 45.79, 185.88 0.29 M114.18 90.08 C128.81 69.85, 144.29 52.5, 189.16 1.1 M113.89 89.32 C138.47 58.78, 165.65 27.77, 189.97 -0.8 M120.04 88.54 C139.29 66.38, 155.67 44.64, 194.61 -1.64 M119.26 89.12 C147.4 56.66, 175.07 23.89, 195.83 0.52 M122.93 89.87 C149.17 58, 179.05 25.59, 202.3 0 M123.8 89.5 C153.58 56.75, 181.61 24.24, 201.37 -0.6 M130.63 86.79 C151.3 63.9, 176.48 35.37, 205.9 -0.11 M129.49 88.41 C155.09 57.77, 181.79 27.57, 206.99 -0.63 M134.79 89.11 C165.32 54.84, 194.64 19.98, 210.62 -0.63 M134.05 89.69 C150.81 71.08, 168.28 52.13, 211.95 -0.34 M138.81 89.04 C168.97 56.97, 196.31 23.14, 217 0.55 M139.84 88.35 C164.74 61.42, 189.36 33.04, 217.41 0.49 M143.23 90.64 C161.79 69.74, 179.58 51.67, 222.38 -0.23 M144.33 89.92 C174.5 57.11, 202.62 23.7, 222.76 0.41 M149.58 87.11 C174.06 61.33, 199.29 36.65, 226.73 3.14 M151 87.73 C178.71 55.7, 205.77 23.35, 226.66 1.83 M153.79 90.24 C181.27 60.03, 209.86 28.26, 224.7 9 M155.81 88.24 C181.36 60.96, 205.3 32.61, 226.09 7.38 M162.03 87.74 C184.32 65.1, 204.87 41.87, 225.39 12.68 M162.11 88.35 C179.1 67.33, 196.21 48.18, 227.19 14.64 M168.09 88.63 C185.06 68.4, 198.74 48.51, 225.89 20.98 M167.1 88.73 C179.53 74.11, 193.91 56.46, 225.87 20.53 M173.28 88.63 C188.48 69.33, 210.21 45.22, 226.41 25.76 M172.77 89.08 C189.7 69.42, 205.87 51.15, 225.99 26.85 M175.79 87.49 C193.92 68.82, 215.35 46.88, 227.69 33.31 M176.32 89.51 C193.13 70.71, 208.9 51.51, 225.83 31.59 M182.54 90.4 C194.18 73.18, 206.14 60.99, 226.14 38.48 M183.08 87.8 C191.56 76.63, 201.91 64.12, 226.34 38.99 M186.62 89.39 C199.84 74.05, 213.65 58.35, 226.6 46.3 M187 88.73 C200.78 73.82, 215.16 58.5, 226.89 45.09 M195.08 88.63 C204.95 76.6, 218.03 63.09, 226.92 49.63 M193.57 89.4 C204.46 74.32, 215.74 62.15, 226.97 51.34 M198.37 89.88 C206.79 79, 215.18 72.54, 225.22 55.22 M198.2 88.56 C205.17 82.56, 210.78 76.42, 226.46 56.61 M201.55 90.56 C210.8 78.72, 219.23 70.25, 225.21 61.17 M202.6 88.61 C208.62 81.74, 214.4 75.25, 226.09 62.51 M208.91 89.42 C213.78 83.83, 217.98 80.15, 227.5 71 M208.41 89.21 C215.91 81.78, 222.06 72.56, 225.73 69.49 M212.73 88.19 C217.23 86.76, 218.78 83.51, 226.19 75.25 M213.03 88.89 C218.68 83.69, 224.16 77.83, 226.07 74.38 M219.86 89.14 C222.02 85.29, 223.83 82.82, 225.81 81.28 M219.59 88.89 C220.87 86.65, 222.84 85.03, 226.23 81.58" stroke="#228be6" stroke-width="0.5" fill="none"></path><path d="M1.24 0.87 C72.48 0.61, 147.84 -2.04, 223.26 0.35 M0.45 -0.39 C46.94 0.85, 94.3 0.95, 223.34 -0.55 M222.19 1.68 C224.57 27.74, 225.72 53.68, 222.67 86.43 M223.96 0.1 C224.9 34.4, 224.48 67.42, 224.49 87.37 M224.36 85.31 C172.14 86.03, 116.59 88.06, 0.82 87.91 M223.73 86.98 C174.02 86.44, 124.41 87.29, 0.65 87.62 M-1.09 88.47 C-1.37 64.41, -1.72 45.96, 1.72 -1.16 M0.45 86.79 C0.33 55.81, -0.41 25.46, -0.33 0.12" stroke="#000000" stroke-width="1" fill="none"></path></g><g transform="translate(450.8197339476626 413.760528821427) rotate(0 57 13)"><text x="57" y="18" font-family="Virgil, Segoe UI Emoji" font-size="20px" fill="#000000" text-anchor="middle" style="white-space: pre;" direction="ltr">send_photo</text></g><g stroke-linecap="round" transform="translate(875.5157891280794 307.64309410329315) rotate(0 120 46)"><path d="M0 0 C0 0, 0 0, 0 0 M0 0 C0 0, 0 0, 0 0 M0.22 6.02 C1.37 3.98, 3.14 3.4, 4.28 0.31 M-0.17 6.43 C1.42 4.67, 3.47 2.8, 5.06 0.29 M-1.24 11 C2.12 8.63, 7.07 4.89, 9.74 -1.13 M0.39 11.54 C3.45 8.42, 8.02 4.2, 10.23 0.69 M-1.54 17.57 C5.55 10.5, 12.54 4.21, 15.02 -1.09 M0.81 19.04 C4.38 11.82, 10.46 5.52, 15.84 0.69 M-0.17 23.01 C8.11 15.76, 15.1 9.6, 22.2 1.67 M1.09 24.54 C7.6 15.03, 15.86 7.84, 21.85 -0.68 M0.97 29.46 C8.55 20.76, 17.99 10.33, 24.75 -0.96 M-0.8 30.91 C5.44 23.52, 13.08 16.4, 26.74 -0.02 M-0.84 38.77 C8.45 29.57, 15.33 18.72, 31.52 0.27 M-0.87 36.91 C12.04 23.71, 22.95 10.23, 31.07 0.79 M-0.84 41.8 C11 29.17, 19.71 16.53, 35.85 1.01 M0.75 42.7 C13.66 27.12, 27.43 10.27, 37.81 0.06 M-2.09 48.15 C11.22 35.73, 27.26 19.45, 43.46 0.75 M-0.55 49.39 C9.37 37.41, 20.79 26.03, 43.25 -0.42 M-0.26 56.18 C20.74 31.63, 38.17 10.21, 45.83 0.13 M0.51 55.06 C13.69 39.54, 26.78 22.8, 47.47 -0.03 M1.71 62.46 C14.34 44.61, 28.4 29.13, 52.07 -1.62 M-0.54 60.15 C13.33 44.64, 26.95 29.2, 53.28 -0.03 M0.86 67.87 C22.34 44.2, 38.9 21.88, 58.28 -1.34 M0.38 67.43 C19.2 44.47, 40.36 21.22, 58.63 -0.23 M-1.14 71.21 C18.37 52.9, 37.84 30.56, 63.45 1.4 M-0.35 73.63 C20.14 50.15, 38.63 27.55, 63.56 0.3 M-1.32 78.86 C17.56 58.42, 39.22 36.46, 66.82 1.77 M-0.35 78.99 C22.32 56.1, 42.44 32.69, 68.64 0.57 M-0.23 86.84 C18.46 61.28, 38.14 39.56, 75.76 -1.04 M1.03 85.3 C23.7 57.83, 46.36 32.19, 73.91 -1.06 M-0.53 90.29 C30.67 56.92, 63.05 20.27, 79.16 1.61 M-0.85 91.25 C25.61 61.19, 51.27 32, 79.33 0.5 M3.5 93.71 C34.26 57.18, 65.73 21.84, 83.25 1.16 M3.67 94.67 C27.36 65.97, 50.52 39.49, 85.66 0.29 M6.08 94.47 C30.58 68.29, 56.35 38.96, 89.06 1.24 M7.69 93.93 C38.94 58.47, 71.32 21.09, 90.99 0.71 M13.81 92.1 C32.78 70.76, 50.74 47.27, 96.21 -0.97 M12.74 93.22 C29.69 73.17, 46.58 53.33, 95.59 -1.23 M20.31 95.71 C37.03 69.46, 59.56 46.79, 100.34 -1.34 M18.42 93.85 C40.16 70.93, 60.51 44.76, 100.41 -0.58 M22.76 93.07 C51.52 62.12, 80.38 24.99, 104.99 0.54 M24.1 95.33 C48.33 65.3, 73.05 36.49, 105.95 -1.16 M30.64 96.25 C63.07 54.96, 96.21 19.66, 110.9 -1.2 M28.6 94.89 C54.64 64.88, 80.2 35.81, 110.8 -0.17 M34.29 95.29 C65.34 58.19, 100.23 20.87, 115.35 -0.64 M33.93 95.1 C62.9 62.92, 89.43 32.05, 115.81 -0.24 M40.23 96.26 C63.29 65.77, 87.01 39.26, 120.69 1.56 M39.57 93.9 C64.55 65.42, 91.75 36.2, 121.88 0.21 M44.45 94.66 C76.74 58.38, 107.41 20.91, 127.09 -0.18 M44.91 93.91 C73.39 61.83, 102.7 29.35, 127.66 0.52 M52.33 92.82 C82.59 58.3, 110.43 24.85, 131.71 1.74 M50.15 93.77 C70.65 69.07, 92.75 45.07, 131.82 -0.16 M56 93.24 C77.77 69.61, 101.24 42.76, 138.09 1.47 M54.82 95.43 C81.24 67.12, 105.51 38.07, 137.51 0.44 M62.22 95.98 C83.33 69.07, 106.62 44.82, 144.04 1.1 M60.62 93.45 C88.26 63.93, 115.03 33.01, 143.26 -0.96 M65.75 96.03 C95.07 59.09, 126.34 25.32, 146.97 0.02 M65.94 94.35 C86.96 70.66, 109.24 45.71, 147.48 0.11 M73.26 92.7 C99.64 64.01, 122.58 33.94, 151.82 0.32 M72.73 93.88 C96.55 66.42, 120.68 37.39, 153.32 -0.83 M76.62 94.98 C105.73 59.49, 134.23 28.58, 160.39 0.14 M77 94.38 C109.15 58.22, 138.84 20.95, 159.17 0.13 M80.86 94.9 C103.75 71.15, 120 51.3, 163.25 -0.96 M81.71 94.06 C113.28 59.15, 142.5 24.71, 163.57 0.6 M85.53 92.95 C119.98 59.69, 152.39 19.16, 169.09 -0.59 M87.21 94.3 C115.99 63.75, 143.04 30.53, 169.64 1.16 M92.52 95.41 C117.16 71.56, 136.53 44.83, 176.6 -0.18 M92.23 95.01 C119.94 63.25, 147.44 30.44, 176.06 0.74 M99.51 95.77 C122.46 67.7, 143.57 43.54, 179.85 0.38 M98.24 93.89 C120.74 66.81, 145.98 40.33, 179.43 -0.12 M103.77 96.04 C121.73 71.9, 143.19 51.38, 184.18 0.16 M104.46 93.78 C134.99 58.37, 167.47 21.54, 185.3 0.05 M107.62 96.19 C129.24 67.97, 152.79 43.05, 191.53 -1.48 M108.24 93.96 C134.73 63.75, 160.86 33.13, 190.54 0.99 M114.23 95.49 C132.41 71.64, 154.38 51.32, 196.38 0.51 M114.02 93.46 C140.37 64.16, 166.52 33.43, 196.29 -0.01 M121.02 93.9 C140.71 74.39, 158.23 53.22, 203.06 -1.76 M119.8 94.37 C153.27 57.7, 185.97 20.69, 200.43 -0.77 M123.55 93.42 C144.71 73.7, 162.46 52.94, 205.66 0.24 M124.02 93.16 C152.99 62.61, 181.52 30.8, 206.48 -0.93 M128.89 95.52 C158.21 63.25, 189.47 29.25, 213.41 0.87 M130.02 94 C145.68 74.52, 162.21 54.44, 212.05 -0.62 M134.82 95.2 C163.04 59.93, 195.2 25.84, 218.53 1.66 M134.35 94.79 C156.98 69.71, 177.26 46.62, 217.79 -1.16 M142.5 94.63 C169.69 60.51, 199.54 24.76, 221.63 0.71 M140.44 94.76 C166.81 65.45, 193.13 35.05, 221.8 0.25 M145.14 92.83 C172.56 63.99, 200.97 34.51, 227.56 -1.96 M146.37 94.01 C168.68 68.45, 190.31 42.38, 228.61 -0.15 M151.18 95.72 C179.6 59.95, 208.43 26.44, 234.82 0.99 M151.08 93.59 C170.02 73.35, 189.8 51.24, 233.56 0.65 M157.71 93.55 C185.26 58.51, 218.68 22.7, 238.74 2.31 M156.91 94.79 C172.38 75.05, 189.91 54.92, 239.15 0.46 M162.31 94.24 C191.39 60.98, 220.03 30.47, 242.19 4.11 M162.43 94.47 C185.96 64.48, 213.02 35.68, 242.71 1.73 M168.45 92.77 C182.26 75.64, 203.71 53.3, 243.52 7.65 M166.95 94.37 C186.72 71.78, 206.41 47.63, 241.49 7.35 M173.35 92.56 C196.82 65.44, 218.77 40.14, 240.41 14.73 M173.43 94.41 C192.76 71.43, 211.87 49.32, 241.5 13.93 M177.35 94.84 C197.16 71.68, 215.52 49.69, 242.62 21.84 M176.93 94.02 C195.35 74.44, 213.37 53.81, 243.39 19.9 M183.8 96.01 C196.55 78.56, 210.84 60.79, 241.29 25.06 M183.52 93.44 C201.53 72.94, 219.83 51.18, 242.75 26.36 M188.44 93.03 C207.73 69.82, 226.98 47.63, 240.15 34.13 M188.75 95.04 C201.1 79.58, 214.59 63.77, 242.41 33.05 M195.24 92.82 C208.03 74.26, 226.23 56.9, 244.2 38.09 M194.58 94.63 C208.46 75.53, 223.91 57.27, 242.19 37.98 M197.83 93.58 C215.19 78.16, 229.13 59.78, 240.32 42.94 M197.79 94.77 C207.7 83.45, 216.72 73.73, 242.59 45 M203.32 94.2 C212.22 82.82, 220.14 73.07, 240.55 49.71 M204.97 94.08 C214.3 81.7, 224.9 69.14, 243.06 49.8 M209.69 95.63 C218.24 84.05, 229.42 69.18, 243.41 55.9 M208.9 94.58 C222.03 79.75, 233.64 64.49, 242.48 57.27 M213.72 94.26 C221.68 83.62, 229.78 75.11, 241.17 61.54 M215.53 94.93 C222.86 85.12, 232.26 73.48, 241.39 63.57 M220.26 95.29 C227.35 87.11, 232.91 82.47, 240.45 66.84 M220.4 93.85 C224.88 87.83, 229.02 82.72, 241.75 69.65 M226.21 94.09 C228.24 91.47, 231.75 84.07, 242.91 73.84 M225.56 93.34 C228.58 90, 232.37 84.6, 242.65 74.85 M229.9 93.68 C235.27 90.1, 241.21 82.65, 240.68 80.54 M230.1 94.07 C234.91 89.35, 237.66 86.36, 242.54 80.94 M235.51 93.88 C238.28 91.6, 239.22 90.7, 241.51 86.74 M236.5 94.25 C238.16 91.42, 240.71 89.75, 241.99 87.36" stroke="#12b886" stroke-width="0.5" fill="none"></path><path d="M-0.96 -1.45 C65.77 1.58, 128.68 0.79, 241.4 0.89 M0.27 0.57 C63.67 -1.22, 126.53 -1.63, 240.82 -0.49 M239.05 0.29 C239.45 21.63, 239.62 42.33, 238.16 92 M240.49 0.64 C241.03 28.09, 240.2 55.53, 239.28 92.23 M240.81 90.88 C185.92 91.81, 133.96 93.61, 0.9 90.58 M239.56 92.24 C151.86 92.53, 63.55 92.38, -0.44 92.1 M-1.8 91.03 C-1.75 74.08, 0.32 53.32, 1.59 1.18 M0.97 92.27 C0.73 72.16, 0.34 52.19, 0.87 -0.9" stroke="#000000" stroke-width="1" fill="none"></path></g><g transform="translate(886.5157891280794 340.64309410329315) rotate(0 109 13)"><text x="109" y="18" font-family="Virgil, Segoe UI Emoji" font-size="20px" fill="#000000" text-anchor="middle" style="white-space: pre;" direction="ltr">channelId - requestId</text></g><g stroke-linecap="round"><g transform="translate(624.5302611274648 250.01039155435524) rotate(0 122.33295186773353 38.82388154006583)"><path d="M-0.83 -1.09 C14.73 8.83, 52.91 46.89, 93.96 60.05 C135.02 73.22, 220.4 74.62, 245.5 77.92 M0.93 0.95 C16.26 10.98, 52.14 48.36, 92.83 61.33 C133.51 74.29, 219.74 76, 245.03 78.74" stroke="#000000" stroke-width="1" fill="none"></path></g><g transform="translate(624.5302611274648 250.01039155435524) rotate(0 122.33295186773353 38.82388154006583)"><path d="M214.38 86.44 C225.32 85.29, 234.6 80.81, 246.65 77.94 M215.76 86.2 C226.7 84.47, 238.48 79.66, 245.18 77.86" stroke="#000000" stroke-width="1" fill="none"></path></g><g transform="translate(624.5302611274648 250.01039155435524) rotate(0 122.33295186773353 38.82388154006583)"><path d="M215.8 65.97 C226.34 71.91, 235.13 74.54, 246.65 77.94 M217.18 65.73 C227.53 71.64, 238.78 74.46, 245.18 77.86" stroke="#000000" stroke-width="1" fill="none"></path></g></g><g stroke-linecap="round"><g transform="translate(1121.42314390529 326.14082817834446) rotate(0 125.47473621579911 -41.84293924810379)"><path d="M-0.45 -0.54 C28.85 -3.26, 133.15 -3.13, 175.12 -17.29 C217.1 -31.45, 238.61 -73.95, 251.4 -85.48 M1.52 1.8 C31.23 -1.19, 135.68 -4.79, 177.22 -19.1 C218.75 -33.41, 238.19 -72.96, 250.71 -84.08" stroke="#000000" stroke-width="1" fill="none"></path></g><g transform="translate(1121.42314390529 326.14082817834446) rotate(0 125.47473621579911 -41.84293924810379)"><path d="M239.63 -57.82 C244.24 -62.46, 246.02 -68.68, 249.36 -82.84 M240.8 -56.8 C244.86 -65.91, 246.93 -75.55, 251.15 -85" stroke="#000000" stroke-width="1" fill="none"></path></g><g transform="translate(1121.42314390529 326.14082817834446) rotate(0 125.47473621579911 -41.84293924810379)"><path d="M223.88 -70.97 C232.23 -72.34, 237.87 -75.34, 249.36 -82.84 M225.04 -69.95 C234.73 -74.54, 242.41 -79.5, 251.15 -85" stroke="#000000" stroke-width="1" fill="none"></path></g></g><g stroke-linecap="round"><g transform="translate(1369.4424371805708 417.44522033037765) rotate(0 -125.60411690464377 -24.40421783256943)"><path d="M-1.02 -1.06 C-12.77 -6.63, -29.82 -26.63, -71.49 -34.39 C-113.16 -42.16, -221.13 -45.28, -251.06 -47.65 M0.65 1 C-10.63 -4.81, -27.06 -27.59, -69.14 -36.06 C-111.23 -44.52, -221.58 -47.85, -251.86 -49.81" stroke="#000000" stroke-width="1" fill="none"></path></g><g transform="translate(1369.4424371805708 417.44522033037765) rotate(0 -125.60411690464377 -24.40421783256943)"><path d="M-224.96 -59.82 C-228.13 -57.06, -235.32 -55.06, -252.84 -49.55 M-222.62 -57.78 C-233.46 -54.87, -242.73 -51.99, -251.19 -49.56" stroke="#000000" stroke-width="1" fill="none"></path></g><g transform="translate(1369.4424371805708 417.44522033037765) rotate(0 -125.60411690464377 -24.40421783256943)"><path d="M-225.98 -39.32 C-228.76 -41.08, -235.72 -43.58, -252.84 -49.55 M-223.64 -37.29 C-234.22 -41.4, -243.14 -45.55, -251.19 -49.56" stroke="#000000" stroke-width="1" fill="none"></path></g></g><g stroke-linecap="round"><g transform="translate(870.6891443588365 378.0376116856537) rotate(0 -122.69151968626113 22.083134497201854)"><path d="M-0.78 -0.38 C-26.63 2.26, -114.08 8.29, -154.92 15.87 C-195.76 23.44, -230.59 40.12, -245.81 45.06 M1.01 -1.62 C-24.91 0.68, -114.04 6.27, -155.27 14.17 C-196.5 22.07, -231.27 40.44, -246.39 45.78" stroke="#000000" stroke-width="1" fill="none"></path></g><g transform="translate(870.6891443588365 378.0376116856537) rotate(0 -122.69151968626113 22.083134497201854)"><path d="M-224.9 27.41 C-229.82 32.29, -239.97 37.95, -247.56 47.11 M-223.68 25.4 C-232.43 32.8, -240.91 41.8, -245.47 45.93" stroke="#000000" stroke-width="1" fill="none"></path></g><g transform="translate(870.6891443588365 378.0376116856537) rotate(0 -122.69151968626113 22.083134497201854)"><path d="M-217.04 46.37 C-224.43 45.27, -237.04 45, -247.56 47.11 M-215.82 44.36 C-227.73 44.24, -239.31 45.76, -245.47 45.93" stroke="#000000" stroke-width="1" fill="none"></path></g></g><g transform="translate(1206.6674363597585 333.2562522572339) rotate(0 40.5 13)"><text x="0" y="18" font-family="Virgil, Segoe UI Emoji" font-size="20px" fill="#000000" text-anchor="start" style="white-space: pre;" direction="ltr">channels</text></g><g transform="translate(1696.8335555908232 326.93552635899005) rotate(0 28.5 13)"><text x="28.5" y="18" font-family="Virgil, Segoe UI Emoji" font-size="20px" fill="#000000" text-anchor="middle" style="white-space: pre;" direction="ltr">REST</text></g><g transform="translate(254.40509443434757 336.4740154367287) rotate(0 39.5 13)"><text x="39.5" y="18" font-family="Virgil, Segoe UI Emoji" font-size="20px" fill="#000000" text-anchor="middle" style="white-space: pre;" direction="ltr">teloxide</text></g><g stroke-linecap="round" transform="translate(880.3424338973218 71.13750041040612) rotate(0 118.2527968464434 42.635362128309566)"><path d="M0 0 C0 0, 0 0, 0 0 M0 0 C0 0, 0 0, 0 0 M-0.51 6.16 C2.04 5.25, 3.5 3.33, 5.4 0.22 M-0.31 6.34 C1.61 4.6, 2.98 2.26, 4.78 0.63 M-0.44 13.51 C3.69 6.43, 7.31 2.52, 9.59 0.08 M-0.53 11.4 C3.48 9.21, 5.83 5.81, 10.87 -0.49 M0.55 16.75 C4.96 10.7, 13.53 3.29, 16.41 0.63 M-0.61 18.48 C3.24 12.96, 8.6 8.2, 15.95 -0.03 M0.73 26.05 C7.49 16.47, 13.8 7.4, 22.47 1.2 M0.39 24.27 C6.99 15.73, 15.64 7.99, 21.83 0.2 M0.15 30.33 C8.23 22.25, 16.75 9.25, 24.39 0.81 M0.45 29.84 C8.14 22.15, 14.69 12.54, 25.76 0.26 M0.25 37.2 C4.91 30.09, 12.67 20.41, 32.52 -0.92 M-0.34 37.43 C7.94 26.87, 17.46 17.23, 32.67 0.41 M0.32 42.97 C8.34 35.24, 14.65 24.96, 36.12 1.72 M-0.22 41.81 C11.7 30.39, 20.49 17.89, 37.74 0.27 M-1.8 50.24 C16.97 32.21, 30.98 12.15, 43.18 1.86 M-0.08 47.93 C16.53 30.69, 32.96 9.7, 43.28 0.15 M1.49 54.05 C13.39 39.88, 24.87 27.19, 45.84 1.45 M0.85 54.88 C15.7 36.98, 29.32 19.05, 47.21 0.39 M0.92 59.26 C10.66 48.14, 25.7 30.66, 52.22 0.62 M-0.57 61.3 C15.73 41.72, 31.37 25.33, 53.97 0.59 M1.54 66.65 C15.73 49.15, 30.89 32.45, 59.83 -0.95 M-1.09 67.36 C18.82 46.13, 36.74 22.91, 58.96 1.04 M-0.56 74.55 C19.79 54.01, 37.02 32.09, 63.45 1.35 M0.6 72.36 C21.73 48.16, 44.92 23.06, 63.5 -0.07 M-1.66 80.5 C22.37 55.85, 42.65 27.17, 68.46 -1.53 M-0.33 80.3 C23.74 52.37, 47.38 22.97, 69.23 0.7 M0.87 83.33 C17.15 69.9, 30.11 51.93, 74.77 1.01 M-0.68 85.92 C23.72 57.31, 47.13 30.94, 75.1 -0.63 M7.14 86.52 C30.67 59.5, 54.31 33.02, 78.15 0.64 M4.58 86.02 C29.91 55.96, 56.79 25.4, 79.75 -0.15 M10.88 85.68 C40.45 51.31, 67.93 18.36, 86.12 -0.54 M11.42 84.79 C40.64 50.82, 68.81 18.71, 84.48 -0.81 M16.61 83.84 C38.66 63.47, 56.62 38.12, 91.36 -0.61 M14.98 85.15 C42.32 54.89, 69.49 21.36, 89.69 1 M22.21 86.79 C41.53 63.46, 61.37 41.15, 95.53 -0.48 M21.23 85.94 C47.72 57.19, 72.99 28.22, 95.81 0.67 M28.29 84.55 C51.91 57.03, 79.5 26.86, 98.66 1.51 M27.41 85.39 C55.41 52.97, 83.53 20.54, 99.73 0.73 M34.14 84.67 C50.6 60.45, 72.42 38.99, 107.06 -1.05 M33.01 84.29 C59.23 55.42, 85.01 26.62, 105.74 0.13 M39 85.66 C52.38 64.57, 71.94 45.29, 110.64 -1.27 M38.15 85.43 C52.72 64.84, 70 46.77, 111.99 -0.4 M41.37 87.06 C65.37 58.58, 91.55 29.94, 118.19 -0.82 M41.88 85.56 C58.84 66.86, 73.16 48.27, 116.72 -0.33 M47.62 87.11 C61.98 69.47, 77.47 49.85, 121.98 -0.31 M47.91 85 C68.08 60.19, 90.62 37.1, 122.06 0.24 M52.64 84.36 C79.91 54.79, 111.08 18.68, 126.44 -1.66 M52.35 85.23 C75.29 59.88, 98.52 32.08, 127.65 0.17 M59.1 83.78 C78.79 63.2, 95 40.62, 131.4 -1.99 M57.92 84.87 C74.51 67.23, 89.62 49.5, 133 -0.71 M62.78 86.16 C81.81 63.63, 99.5 42.59, 137.42 -0.25 M62.47 85.07 C80.3 66.36, 99.1 45.48, 137.9 -0.21 M68.46 85.48 C94.09 53.92, 118.72 24.94, 141.7 0.2 M69.85 84.8 C96.74 52.64, 124.06 21.43, 143.36 -0.57 M75.32 86.26 C100.51 56.09, 129.09 22.32, 147.45 0.92 M74.39 86.15 C105.02 51.22, 134.83 17.4, 148.01 0.97 M80.78 84.97 C107.87 52.38, 133.56 19.23, 155.74 1.75 M79.83 85.63 C98.96 63.67, 116.99 40.43, 153.12 -0.62 M85.88 87.37 C98.23 68.24, 116.26 50.85, 158.91 -1.73 M83.74 85.53 C113.04 52.55, 140.03 18.93, 158.96 1.2 M91.18 85.93 C116.72 53.86, 145.99 21.93, 164.43 -0.93 M90.48 85.2 C108.22 66.48, 124.25 46.93, 163.77 -0.14 M94.12 85.16 C122.82 54.78, 150.66 24.55, 168.26 -0.81 M95.61 86.35 C124.96 52.26, 153.75 18.53, 170.2 0.98 M100.88 87 C127.66 55.32, 150.89 27.72, 174.76 1.49 M100.87 84.39 C128.39 54.12, 155.5 22.55, 174.23 -0.35 M107.77 84.22 C137.24 51.47, 164.4 20.12, 182.02 2 M106.57 85.74 C123.21 64.43, 140.46 43.67, 179.65 -0.16 M113.12 85.74 C138.6 50.72, 171.01 17.69, 185.77 -0.69 M110.56 85.12 C131.21 64.48, 150.44 41.13, 184.93 -0.43 M114.63 86.08 C142.76 59.29, 167.01 27.36, 188.74 -0.05 M116.66 84.89 C142.12 57.37, 166.2 27.64, 189.71 0.35 M121.25 86.65 C143.02 65.8, 161.02 41.41, 196.56 -0.26 M121.57 84.33 C150.5 52.47, 178.82 19.52, 195.72 0.43 M126.55 85.21 C148.73 62.11, 165.58 40.99, 203.09 1.22 M127.36 85 C147.61 60.68, 168.55 37.94, 201.24 0.12 M132.64 85.18 C158.99 57.14, 181.58 29.59, 206.31 -1.05 M132.37 84 C156.92 56.94, 181.69 28, 205.97 -0.89 M139.46 85.04 C162.84 58.11, 187.03 27.99, 213.74 0.95 M137.65 85.32 C158.07 61.74, 179.28 35.46, 211.56 -0.22 M144.74 83.69 C173.9 50.66, 200.21 15.94, 218.25 -1.97 M143.92 85.13 C173.47 51.37, 201.6 16.5, 218.48 0.5 M149.33 85.89 C170.11 58.88, 195.41 32.94, 223.47 1.21 M147.98 85.11 C177.09 53.5, 203.74 20.42, 222.48 0.98 M152.42 84.27 C182.78 51.75, 213.25 18.86, 227.67 -0.98 M152.99 86.51 C180.1 54.02, 208.47 22.82, 227.54 -0.47 M160.21 85.06 C176.72 65.89, 188.25 51.18, 233.11 -1.02 M158.24 85.69 C189.42 51.45, 216.87 19.37, 232.27 0.43 M162.56 85.66 C193.46 55.57, 221.46 21.44, 236.62 2.39 M164.79 85.71 C189.38 55.97, 215.08 26.14, 237.58 0.68 M168.21 84.77 C190.61 61.4, 211.32 37.88, 239.63 5.02 M169.82 84.38 C191.85 59.76, 213.77 33.44, 237.75 6.63 M174.14 83.79 C197.68 58.62, 221.86 32.58, 236.63 13.12 M175.02 85.57 C196.09 60.85, 216.93 36.97, 237.95 13.98 M181.49 84.17 C198.51 65.15, 215.99 44.83, 236.63 21.43 M179.56 84.55 C192.55 71.4, 206.08 56.78, 236.78 19.6 M184.86 84.8 C203.79 63.96, 224.73 42.71, 236.39 25.48 M184.51 85.24 C197.78 70.78, 209.6 56.9, 238.53 25.89 M192.28 83.37 C199.04 73.24, 210.87 63.27, 237.05 31.25 M191.77 85.59 C204.53 68.64, 219.48 52.12, 236.95 32.32 M194.49 85.76 C207.72 73.01, 213.58 63.63, 239.42 37.26 M196.55 84.87 C207.14 74.18, 216.25 61.44, 237.48 37.47 M200.88 83.39 C215.75 70.59, 231.5 52.81, 237.3 43.98 M202.24 84.94 C208.68 76.43, 216.9 66.5, 237.73 44.38 M204.85 86.66 C215.76 77.97, 222.71 67.33, 236.69 51.93 M206.91 85.65 C215.26 75.26, 225.19 65.82, 237.76 50.56 M211.65 86.22 C222.4 76.15, 228.24 64.83, 236.51 55.31 M212.22 86.06 C222.06 74.19, 230.63 62.86, 237.75 55.61 M215.82 86.45 C220.27 79, 226.56 74.63, 237.17 63.64 M217.84 85.82 C223.71 76.46, 232.65 69.12, 237.78 62.76 M221.01 86.75 C226.23 79.73, 230.41 74.65, 239.88 67.87 M222.43 84.43 C226.98 81.32, 229.83 77.5, 238.07 66.91 M228.98 86.61 C230.35 80.96, 233.54 76.47, 236.38 73.84 M227.98 84.82 C229.93 83.45, 231.83 81.16, 237.51 74.01 M233.46 84.98 C234.35 83.22, 236.47 82.64, 237.6 80.35 M233.35 85.2 C234.69 84.05, 235.62 82.76, 237.47 80.64" stroke="#40c057" stroke-width="0.5" fill="none"></path><path d="M-1.56 -0.57 C92.02 -0.84, 184.49 2.12, 236.44 -1.33 M235.04 0.98 C236.13 16.42, 234.97 34.68, 237.78 86.44 M236.45 86.64 C153.9 85.41, 70.15 82.58, 0.61 83.89 M-1.97 85.97 C-0.48 52.98, -0.57 21.23, 1.18 1.42" stroke="#000000" stroke-width="1.5" fill="none" stroke-dasharray="1.5 7"></path></g><g stroke-linecap="round"><g transform="translate(936.6532895384853 302.8164493340503) rotate(0 2.3230070106458243 -72.051479361671)"><path d="M0.81 0.91 C1.28 -23.44, 3.4 -120.69, 3.83 -145.01" stroke="#000000" stroke-width="1.5" fill="none" stroke-dasharray="1.5 7"></path></g><g transform="translate(936.6532895384853 302.8164493340503) rotate(0 2.3230070106458243 -72.051479361671)"><path d="M15.04 -115.6 C9.21 -127.21, 5.48 -136.92, 3.59 -145.3" stroke="#000000" stroke-width="1.5" fill="none" stroke-dasharray="1.5 5"></path></g><g transform="translate(936.6532895384853 302.8164493340503) rotate(0 2.3230070106458243 -72.051479361671)"><path d="M-5.48 -116 C-3.42 -127.6, 0.74 -137.16, 3.59 -145.3" stroke="#000000" stroke-width="1.5" fill="none" stroke-dasharray="1.5 5"></path></g></g><g stroke-linecap="round"><g transform="translate(1054.1016455900549 162.8437510260153) rotate(0 0.09061016662769816 73.08141547264427)"><path d="M-0.57 0.89 C-0.28 25.21, 0.36 121.34, 0.75 145.27" stroke="#000000" stroke-width="1.5" fill="none" stroke-dasharray="1.5 7"></path></g><g transform="translate(1054.1016455900549 162.8437510260153) rotate(0 0.09061016662769816 73.08141547264427)"><path d="M-8.33 115.77 C-6.89 123.61, -5.89 130.39, 1.15 144.31" stroke="#000000" stroke-width="1.5" fill="none" stroke-dasharray="1.5 5"></path></g><g transform="translate(1054.1016455900549 162.8437510260153) rotate(0 0.09061016662769816 73.08141547264427)"><path d="M12.19 115.54 C9.2 123.33, 5.78 130.17, 1.15 144.31" stroke="#000000" stroke-width="1.5" fill="none" stroke-dasharray="1.5 5"></path></g></g><g stroke-opacity="0.7" fill-opacity="0.7" transform="translate(950.0952307437653 100.7728625387158) rotate(0 48.5 13)"><text x="48.5" y="18" font-family="Virgil, Segoe UI Emoji" font-size="20px" fill="#000000" text-anchor="middle" style="white-space: pre;" direction="ltr">database</text></g></svg>