<svg version="1.1" xmlns="http://www.w3.org/2000/svg" viewBox="0 0 1854 652" width="3708" height="1304" filter="invert(93%) hue-rotate(180deg)">
  <!-- svg-source:excalidraw -->
  
  <defs>
    <style>
      @font-face {
        font-family: "Virgil";
        src: url("https://excalidraw.com/Virgil.woff2");
      }
      @font-face {
        font-family: "Cascadia";
        src: url("https://excalidraw.com/Cascadia.woff2");
      }
    </style>
  </defs>
  <g stroke-linecap="round" transform="translate(346 172) rotate(0 89 43)"><path d="M-1.51 1.15 C70.09 -0.2, 139.56 -2.85, 178.01 1.39 M-0.65 -0.53 C52.3 -0.36, 104.6 -1.59, 177.93 -0.14 M178.26 -1.75 C179.35 35.23, 177.62 68.33, 179.31 85.5 M177.94 0.15 C177.77 32.44, 177.89 64.55, 177.08 86.31 M177.37 86.47 C128.01 84.98, 82.84 85.74, -1.91 84.33 M177.86 86.59 C131.8 84.89, 87.6 84.65, -0.83 85.64 M0.46 85.75 C-2.06 52.96, -1.47 19.13, -1.67 1.13 M-0.13 85.59 C0.92 67.43, -0.29 47.31, 0.72 0.56" stroke="#000000" stroke-width="1" fill="none"></path></g><g transform="translate(387 202.75) rotate(0 48 12)"><text x="48" y="17" font-family="Virgil, Segoe UI Emoji" font-size="20px" fill="#000000" text-anchor="middle" style="white-space: pre;" direction="ltr">craby bot</text></g><g stroke-linecap="round" transform="translate(810 80) rotate(0 103 183)"><path d="M1.37 0.43 C76.35 0.34, 155.31 -0.03, 206.63 -0.04 M0.05 -0.16 C70.81 0.19, 139.42 0.5, 206.39 0.04 M205.51 -0.51 C204.97 129.97, 205.34 261.8, 205.62 365.61 M205.8 -0.52 C204.7 107.34, 203.84 214.15, 206.16 365.83 M207.03 367.35 C159.4 362.99, 115.59 363.93, -0.61 364.45 M205.69 366.43 C124.9 365.8, 44.3 365.1, -0.16 365.52 M1.05 366.4 C2.46 235.73, 3.32 106.97, -1.18 1.15 M0.36 365.44 C1.78 261.38, 2.61 156.72, -0.19 -0.02" stroke="#000000" stroke-width="1" fill="none"></path></g><g transform="translate(889 85) rotate(0 24 12)"><text x="24" y="17" font-family="Virgil, Segoe UI Emoji" font-size="20px" fill="#000000" text-anchor="middle" style="white-space: pre;" direction="ltr">redis</text></g><g stroke-linecap="round" transform="translate(1201 357) rotate(0 107 38)"><path d="M-1.58 0.66 C48.57 0.37, 95.23 -2.82, 214.15 0 M-0.6 -0.35 C75.28 0.97, 148.94 0.88, 213.76 -0.49 M214.11 1.4 C214.68 23.33, 215.62 46.6, 212.52 77.89 M214.92 -0.62 C214.25 27.46, 214.81 54.26, 214.01 75.19 M213.57 75.79 C149.06 77.81, 81.93 75.59, -0.38 77.49 M213.66 75.22 C140.25 75.12, 65.39 74.87, -0.77 75.41 M-0.11 75.44 C1.03 58.42, -1.81 43.19, -1.66 -1.1 M0.36 76.93 C-0.81 48.35, 0.66 18.58, -0.16 -0.49" stroke="#000000" stroke-width="1" fill="none"></path></g><g transform="translate(1257 383) rotate(0 51 12)"><text x="51" y="17" font-family="Virgil, Segoe UI Emoji" font-size="20px" fill="#000000" text-anchor="middle" style="white-space: pre;" direction="ltr">R8 client </text></g><g stroke-linecap="round" transform="translate(1209 156) rotate(0 119 39)"><path d="M-0.29 -1.02 C93.4 1.7, 186.63 2.87, 236.76 -1.43 M0.64 -0.65 C75.57 0.07, 152.06 -0.44, 238.44 0.57 M239.05 0.8 C237.38 18.26, 238.89 35.82, 238.49 79.36 M237.37 0.42 C237.94 20.22, 237.86 39.38, 237.1 77.44 M239.27 78.66 C182.34 77.32, 127.92 76.16, 0.44 79.11 M238.79 78.52 C173.28 76.09, 108.58 76.56, 0.21 77.62 M-0.94 78.31 C-1.34 61.16, -2.07 44.99, 1.17 -1.38 M-0.06 78.24 C0.27 50.86, 0.65 23.19, -0.27 -0.58" stroke="#000000" stroke-width="1" fill="none"></path></g><g transform="translate(1243.5 182.75) rotate(0 84.5 12)"><text x="84.5" y="17" font-family="Virgil, Segoe UI Emoji" font-size="20px" fill="#000000" text-anchor="middle" style="white-space: pre;" direction="ltr">webhoooks server</text></g><g stroke-linecap="round" transform="translate(1633 10) rotate(0 105.5 215)"><path d="M-1.08 -0.74 C43.88 -1.22, 91.82 -2.57, 211.29 0.24 M-0.03 -0.37 C56.49 -1.61, 114.4 -1.8, 211.87 -0.07 M210.41 0.35 C211.83 106.53, 210.7 210.64, 211.92 430.91 M210.51 -0.06 C209.25 120.15, 209.25 240.91, 211.3 429.99 M212.39 430.57 C162.13 429.66, 111.03 429.64, 1.25 430.57 M211.16 429.82 C140.46 431.55, 69.46 431.55, -0.68 430.82 M0.06 430.62 C1.45 295.47, 0.56 160.31, -0.36 -0.6 M0.47 429.92 C-0.34 324.03, 0.16 218.4, 0.27 -0.5" stroke="#000000" stroke-width="1" fill="none"></path></g><g transform="translate(1675.5 212.75) rotate(0 63 12)"><text x="63" y="17" font-family="Virgil, Segoe UI Emoji" font-size="20px" fill="#000000" text-anchor="middle" style="white-space: pre;" direction="ltr">replicate.com</text></g><g stroke-linecap="round" transform="translate(10 23) rotate(0 108 229)"><path d="M0.45 0.68 C61.44 1.14, 126.75 2.18, 216.66 -1.6 M0.32 0.29 C77.69 1.61, 153.98 0.73, 215.74 -0.15 M216.91 -0.94 C214.36 171.93, 214.37 342.22, 215.77 457.07 M215.76 -0.05 C217.36 140.65, 216.76 281.24, 216.42 457.6 M214.29 457.66 C162.03 458.55, 105.43 458.44, 1.18 457.05 M216.39 457.38 C143.37 458.95, 69.47 458.7, -0.85 458.52 M-0.49 458.58 C-0.83 275.7, -1.34 91.23, -0.88 -0.89 M0.17 458.1 C1.4 283.89, 1.3 110.21, -0.05 0.23" stroke="#000000" stroke-width="1" fill="none"></path></g><g transform="translate(49.5 239.75) rotate(0 68.5 12)"><text x="68.5" y="17" font-family="Virgil, Segoe UI Emoji" font-size="20px" fill="#000000" text-anchor="middle" style="white-space: pre;" direction="ltr">Telegram API</text></g><g stroke-linecap="round"><g transform="translate(230 153.93181217726823) rotate(0 57.91326307761017 19.351772533429425)"><path d="M-0.42 0.4 C18.66 6.98, 95 32.76, 114.04 39.13 M1.56 -0.43 C21.04 5.84, 97.16 30.66, 116.25 37.42" stroke="#000000" stroke-width="1" fill="none"></path></g><g transform="translate(230 153.93181217726823) rotate(0 57.91326307761017 19.351772533429425)"><path d="M86.93 36.51 C95.47 36.06, 102.58 35.88, 114.95 36.85 M86.66 37.98 C94.1 39.04, 99.58 37.45, 115.75 37.99" stroke="#000000" stroke-width="1" fill="none"></path></g><g transform="translate(230 153.93181217726823) rotate(0 57.91326307761017 19.351772533429425)"><path d="M93.5 17.07 C100.25 21.73, 105.63 26.68, 114.95 36.85 M93.23 18.54 C99.02 24.19, 102.94 27.23, 115.75 37.99" stroke="#000000" stroke-width="1" fill="none"></path></g></g><g transform="translate(258 122) rotate(0 34.5 13)"><text x="0" y="18" font-family="Virgil, Segoe UI Emoji" font-size="20px" fill="#000000" text-anchor="start" style="white-space: pre;" direction="ltr">/make </text></g><g stroke-linecap="round"><g transform="translate(526 192.33906547442223) rotate(0 155.9882738041598 -8.835149538935894)"><path d="M-0.06 0.71 C51.94 -1.93, 259.14 -13.43, 311.23 -16.59 M-1.56 0.04 C50.9 -2.89, 261.29 -15.47, 313.53 -18.38" stroke="#000000" stroke-width="1" fill="none"></path></g><g transform="translate(526 192.33906547442223) rotate(0 155.9882738041598 -8.835149538935894)"><path d="M287.17 -7.8 C293.57 -8.53, 297.3 -12.23, 312.59 -19.13 M285.44 -5.6 C292.1 -8.3, 297.32 -11.76, 313.24 -17.63" stroke="#000000" stroke-width="1" fill="none"></path></g><g transform="translate(526 192.33906547442223) rotate(0 155.9882738041598 -8.835149538935894)"><path d="M285.98 -28.28 C292.54 -24.2, 296.55 -23.08, 312.59 -19.13 M284.25 -26.09 C291.27 -24.3, 296.75 -23.27, 313.24 -17.63" stroke="#000000" stroke-width="1" fill="none"></path></g></g><g transform="translate(685 129) rotate(0 47 13)"><text x="0" y="18" font-family="Virgil, Segoe UI Emoji" font-size="20px" fill="#000000" text-anchor="start" style="white-space: pre;" direction="ltr">new entry</text></g><g stroke-linecap="round"><g transform="translate(1017.53056044507 364.51313215685855) rotate(0 90.42243753561718 15.27666014159422)"><path d="M0.4 -0.16 C30.67 4.82, 151.46 25.35, 181.69 30.3 M-0.84 -1.28 C29.27 3.85, 150.46 26.54, 180.79 31.84" stroke="#000000" stroke-width="1" fill="none"></path></g><g transform="translate(1017.53056044507 364.51313215685855) rotate(0 90.42243753561718 15.27666014159422)"><path d="M150.96 37.07 C160.31 35.6, 168.16 34.54, 179.66 33.77 M150.64 37.02 C157.1 36.37, 163.23 34.17, 180.37 32.24" stroke="#000000" stroke-width="1" fill="none"></path></g><g transform="translate(1017.53056044507 364.51313215685855) rotate(0 90.42243753561718 15.27666014159422)"><path d="M154.63 16.88 C162.93 21.63, 169.65 26.78, 179.66 33.77 M154.31 16.83 C159.93 20.4, 165.28 22.44, 180.37 32.24" stroke="#000000" stroke-width="1" fill="none"></path></g></g><g transform="translate(1062 394) rotate(12.52880770915151 55 25.5)"><text x="0" y="18.5" font-family="Virgil, Segoe UI Emoji" font-size="20px" fill="#000000" text-anchor="start" style="white-space: pre;" direction="ltr">subscribed </text><text x="0" y="44" font-family="Virgil, Segoe UI Emoji" font-size="20px" fill="#000000" text-anchor="start" style="white-space: pre;" direction="ltr">to jobs</text></g><g stroke-linecap="round"><g transform="translate(1422.8786920293064 395.9999999999998) rotate(0 105.09301579069745 0.9186911691046475)"><path d="M-0.23 -0.03 C35.06 0.47, 176.85 2.55, 211.99 2.93 M-1.8 -1.09 C33.38 -0.96, 176.27 0.24, 211.5 0.98" stroke="#000000" stroke-width="1" fill="none"></path></g><g transform="translate(1422.8786920293064 395.9999999999998) rotate(0 105.09301579069745 0.9186911691046475)"><path d="M183.12 12.3 C192.85 6.88, 200.78 5.98, 212.55 2.69 M183.69 9.95 C192.23 8.01, 198.65 4.67, 210.66 0.5" stroke="#000000" stroke-width="1" fill="none"></path></g><g transform="translate(1422.8786920293064 395.9999999999998) rotate(0 105.09301579069745 0.9186911691046475)"><path d="M183.4 -8.22 C193.02 -7.05, 200.87 -1.35, 212.55 2.69 M183.97 -10.57 C192.37 -6.6, 198.7 -4.04, 210.66 0.5" stroke="#000000" stroke-width="1" fill="none"></path></g></g><g transform="translate(1432 321) rotate(0 94.5 25.5)"><text x="0" y="18.5" font-family="Virgil, Segoe UI Emoji" font-size="20px" fill="#000000" text-anchor="start" style="white-space: pre;" direction="ltr">new request,</text><text x="0" y="44" font-family="Virgil, Segoe UI Emoji" font-size="20px" fill="#000000" text-anchor="start" style="white-space: pre;" direction="ltr">replyTo: webhook/id</text></g><g stroke-linecap="round"><g transform="translate(1627 220.13143708756456) rotate(0 -88.64294496414709 -1.62201732684764)"><path d="M-0.5 0.89 C-30.43 0.55, -149.02 -1.69, -178.72 -2.15 M1.43 0.31 C-28.18 -0.4, -146.78 -3.43, -176.38 -4.13" stroke="#000000" stroke-width="1" fill="none"></path></g><g transform="translate(1627 220.13143708756456) rotate(0 -88.64294496414709 -1.62201732684764)"><path d="M-146.47 -14.89 C-158.04 -11.44, -168.08 -4.81, -177.74 -2.47 M-147.68 -14.41 C-154.55 -11.88, -159.91 -9.83, -176.26 -5.12" stroke="#000000" stroke-width="1" fill="none"></path></g><g transform="translate(1627 220.13143708756456) rotate(0 -88.64294496414709 -1.62201732684764)"><path d="M-146.98 5.62 C-158.34 1.48, -168.19 0.52, -177.74 -2.47 M-148.19 6.1 C-155.09 4.49, -160.34 2.4, -176.26 -5.12" stroke="#000000" stroke-width="1" fill="none"></path></g></g><g transform="translate(1500 152) rotate(0 56 25.5)"><text x="0" y="18.5" font-family="Virgil, Segoe UI Emoji" font-size="20px" fill="#000000" text-anchor="start" style="white-space: pre;" direction="ltr">webhook/id </text><text x="0" y="44" font-family="Virgil, Segoe UI Emoji" font-size="20px" fill="#000000" text-anchor="start" style="white-space: pre;" direction="ltr">response</text></g><g stroke-linecap="round"><g transform="translate(1203.2503249500853 192.3232024866536) rotate(0 -115.70243309440355 -0.30260917847527935)"><path d="M-0.75 1.07 C-39.34 1.14, -193.06 0.27, -231.88 -0.1 M1.06 0.59 C-37.59 0.38, -193.73 -1.61, -232.46 -1.68" stroke="#000000" stroke-width="1" fill="none"></path></g><g transform="translate(1203.2503249500853 192.3232024866536) rotate(0 -115.70243309440355 -0.30260917847527935)"><path d="M-27.2 12.38 C-19.61 6.84, -13.75 5.49, 0.91 -0.4 M-29.59 11.05 C-22.5 7.79, -14.34 6.78, -1.24 1.38" stroke="#000000" stroke-width="1" fill="none"></path></g><g transform="translate(1203.2503249500853 192.3232024866536) rotate(0 -115.70243309440355 -0.30260917847527935)"><path d="M-27.11 -8.14 C-19.63 -8.14, -13.8 -3.95, 0.91 -0.4 M-29.5 -9.47 C-22.33 -7.65, -14.2 -3.57, -1.24 1.38" stroke="#000000" stroke-width="1" fill="none"></path></g><g transform="translate(1203.2503249500853 192.3232024866536) rotate(0 -115.70243309440355 -0.30260917847527935)"><path d="M-202.41 -10.54 C-210.16 -10.99, -219.55 -6.9, -230.8 -3.15 M-204.8 -11.87 C-211.61 -9.69, -217.46 -5.7, -232.96 -1.37" stroke="#000000" stroke-width="1" fill="none"></path></g><g transform="translate(1203.2503249500853 192.3232024866536) rotate(0 -115.70243309440355 -0.30260917847527935)"><path d="M-202.57 9.98 C-210.19 3.99, -219.54 2.55, -230.8 -3.15 M-204.96 8.65 C-211.83 5.74, -217.64 4.64, -232.96 -1.37" stroke="#000000" stroke-width="1" fill="none"></path></g></g><g transform="translate(1037 103) rotate(0 54 38.5)"><text x="0" y="17.666666666666668" font-family="Virgil, Segoe UI Emoji" font-size="20px" fill="#000000" text-anchor="start" style="white-space: pre;" direction="ltr">update </text><text x="0" y="43.333333333333336" font-family="Virgil, Segoe UI Emoji" font-size="20px" fill="#000000" text-anchor="start" style="white-space: pre;" direction="ltr">output(url)</text><text x="0" y="69" font-family="Virgil, Segoe UI Emoji" font-size="20px" fill="#000000" text-anchor="start" style="white-space: pre;" direction="ltr">or error</text></g><g stroke-linecap="round"><g transform="translate(805.7175415890788 415.0081632908799) rotate(0 -138.16200185142168 -85.42832196270348)"><path d="M1.13 0.5 C-44.83 -27.89, -230.44 -142.77, -276.64 -171.36 M0.26 -0.28 C-45.76 -28.48, -231.35 -142.12, -277.45 -170.43" stroke="#000000" stroke-width="1" fill="none"></path></g><g transform="translate(805.7175415890788 415.0081632908799) rotate(0 -138.16200185142168 -85.42832196270348)"><path d="M-247.22 -164.03 C-256.61 -164.08, -262.72 -165.14, -277.46 -169.64 M-248.97 -164.49 C-255.81 -166.77, -264.31 -167.9, -278.12 -170.63" stroke="#000000" stroke-width="1" fill="none"></path></g><g transform="translate(805.7175415890788 415.0081632908799) rotate(0 -138.16200185142168 -85.42832196270348)"><path d="M-257.95 -146.53 C-264.75 -150.65, -268.44 -155.68, -277.46 -169.64 M-259.7 -146.99 C-263.47 -154.03, -269.06 -159.89, -278.12 -170.63" stroke="#000000" stroke-width="1" fill="none"></path></g></g><g transform="translate(574 357) rotate(0 66 25.5)"><text x="0" y="18.5" font-family="Virgil, Segoe UI Emoji" font-size="20px" fill="#000000" text-anchor="start" style="white-space: pre;" direction="ltr">subscribed to</text><text x="0" y="44" font-family="Virgil, Segoe UI Emoji" font-size="20px" fill="#000000" text-anchor="start" style="white-space: pre;" direction="ltr">notifications</text></g><g stroke-linecap="round"><g transform="translate(345 195) rotate(0 87.94747409969568 -0.8777335897087823)"><path d="M-1.09 0.77 C28.25 0.17, 147.53 -1.89, 176.98 -2.53" stroke="#000000" stroke-width="1.5" fill="none" stroke-dasharray="8 9"></path></g></g><g stroke-linecap="round"><g transform="translate(342 242.13135017323668) rotate(0 -54.96632127134322 26.88064187289558)"><path d="M-0.41 0.22 C-18.94 8.93, -92.14 44.39, -110.72 53.17 M1.57 -0.7 C-17.12 8.08, -93 45.37, -111.5 54.47" stroke="#000000" stroke-width="1" fill="none"></path></g><g transform="translate(342 242.13135017323668) rotate(0 -54.96632127134322 26.88064187289558)"><path d="M-90.35 33.36 C-98.26 38.58, -105.59 46.42, -112.73 55.3 M-90.87 33.81 C-96.97 40.6, -103.66 46.39, -111.72 53.8" stroke="#000000" stroke-width="1" fill="none"></path></g><g transform="translate(342 242.13135017323668) rotate(0 -54.96632127134322 26.88064187289558)"><path d="M-81.3 51.78 C-92.37 50.82, -102.72 52.52, -112.73 55.3 M-81.82 52.23 C-90.76 53.27, -100.3 53.26, -111.72 53.8" stroke="#000000" stroke-width="1" fill="none"></path></g></g><g stroke-linecap="round"><g transform="translate(345 240) rotate(0 90.30523197501896 0.7526661410927886)"><path d="M0.83 -0.46 C30.79 -0.27, 150 1.8, 179.78 1.97" stroke="#000000" stroke-width="1.5" fill="none" stroke-dasharray="8 9"></path></g></g><g transform="translate(248 303) rotate(0 57 13)"><text x="0" y="18" font-family="Virgil, Segoe UI Emoji" font-size="20px" fill="#000000" text-anchor="start" style="white-space: pre;" direction="ltr">send_photo</text></g><g stroke-linecap="round"><g transform="translate(815 358) rotate(0 102.81373219639056 2.066851972043537)"><path d="M0.95 0.79 C34.98 1.27, 170.88 2.91, 204.68 3.35" stroke="#000000" stroke-width="1.5" fill="none" stroke-dasharray="8 9"></path></g></g><g stroke-linecap="round"><g transform="translate(1006 403) rotate(0 -100.25739683955908 1.2971576437353747)"><path d="M0.75 0.46 C-32.96 0.97, -167.55 1.74, -201.27 2.13" stroke="#000000" stroke-width="1.5" fill="none" stroke-dasharray="8 9"></path></g></g><g transform="translate(846 127.5) rotate(0 59 62)"><text x="0" y="13.666666666666668" font-family="Virgil, Segoe UI Emoji" font-size="16px" fill="#000000" text-anchor="start" style="white-space: pre;" direction="ltr">id, </text><text x="0" y="34.333333333333336" font-family="Virgil, Segoe UI Emoji" font-size="16px" fill="#000000" text-anchor="start" style="white-space: pre;" direction="ltr">userId, </text><text x="0" y="55" font-family="Virgil, Segoe UI Emoji" font-size="16px" fill="#000000" text-anchor="start" style="white-space: pre;" direction="ltr">channelId, </text><text x="0" y="75.66666666666667" font-family="Virgil, Segoe UI Emoji" font-size="16px" fill="#000000" text-anchor="start" style="white-space: pre;" direction="ltr">Input(prompt), </text><text x="0" y="96.33333333333334" font-family="Virgil, Segoe UI Emoji" font-size="16px" fill="#000000" text-anchor="start" style="white-space: pre;" direction="ltr">output(url),</text><text x="0" y="117" font-family="Virgil, Segoe UI Emoji" font-size="16px" fill="#000000" text-anchor="start" style="white-space: pre;" direction="ltr">error</text></g><g stroke-linecap="round"><g transform="translate(631.0000000000001 185.82305461186297) rotate(0 88.63718495033675 87.28447230556347)"><path d="M-0.56 -0.52 C29.07 28.53, 148.13 144.64, 177.83 173.96 M1.35 1.82 C30.8 31.04, 147.57 146.5, 176.79 175.09" stroke="#000000" stroke-width="1" fill="none"></path></g><g transform="translate(631.0000000000001 185.82305461186297) rotate(0 88.63718495033675 87.28447230556347)"><path d="M148.64 162.34 C156.55 166, 167.3 168.44, 176.16 174.11 M150.21 163.54 C155.28 165.68, 161.58 167.74, 176.01 174.61" stroke="#000000" stroke-width="1" fill="none"></path></g><g transform="translate(631.0000000000001 185.82305461186297) rotate(0 88.63718495033675 87.28447230556347)"><path d="M163.04 147.72 C166.49 155.8, 172.82 162.72, 176.16 174.11 M164.6 148.92 C166.36 154.47, 169.29 159.95, 176.01 174.61" stroke="#000000" stroke-width="1" fill="none"></path></g></g><g transform="translate(682 238) rotate(46.974934010881974 51 13)"><text x="0" y="18" font-family="Virgil, Segoe UI Emoji" font-size="20px" fill="#000000" text-anchor="start" style="white-space: pre;" direction="ltr">publish job</text></g><g stroke-linecap="round"><g transform="translate(1204.888888888889 195.44444444444446) rotate(0 -93.2664308644687 105.62165166260138)"><path d="M0.51 -0.75 C-30.56 34.24, -155.2 175.67, -186.37 210.94 M-0.68 1.47 C-31.86 36.5, -155.98 176.96, -187.05 212" stroke="#000000" stroke-width="1" fill="none"></path></g><g transform="translate(1204.888888888889 195.44444444444446) rotate(0 -93.2664308644687 105.62165166260138)"><path d="M-177.3 184.95 C-180.69 193.27, -184.13 202.16, -185.64 210.39 M-176.35 184.92 C-178.14 193.05, -182.91 200.19, -186.5 212.91" stroke="#000000" stroke-width="1" fill="none"></path></g><g transform="translate(1204.888888888889 195.44444444444446) rotate(0 -93.2664308644687 105.62165166260138)"><path d="M-161.94 198.55 C-170.1 202.8, -178.21 207.56, -185.64 210.39 M-160.98 198.52 C-167.28 202.79, -176.46 206.03, -186.5 212.91" stroke="#000000" stroke-width="1" fill="none"></path></g></g><g transform="translate(1018.8367476635292 267.28363515541423) rotate(312.45243090261346 56 25.5)"><text x="0" y="18.5" font-family="Virgil, Segoe UI Emoji" font-size="20px" fill="#000000" text-anchor="start" style="white-space: pre;" direction="ltr">publish </text><text x="0" y="44" font-family="Virgil, Segoe UI Emoji" font-size="20px" fill="#000000" text-anchor="start" style="white-space: pre;" direction="ltr">notification</text></g><g transform="translate(879 331) rotate(0 20.5 13)"><text x="0" y="18" font-family="Virgil, Segoe UI Emoji" font-size="20px" fill="#000000" text-anchor="start" style="white-space: pre;" direction="ltr">jobs</text></g><g transform="translate(847 411) rotate(0 61.5 13)"><text x="0" y="18" font-family="Virgil, Segoe UI Emoji" font-size="20px" fill="#000000" text-anchor="start" style="white-space: pre;" direction="ltr">notifications</text></g><g transform="translate(1033 196) rotate(0 68.5 13)"><text x="0" y="18" font-family="Virgil, Segoe UI Emoji" font-size="20px" fill="#000000" text-anchor="start" style="white-space: pre;" direction="ltr">read chanelId</text></g><g stroke-linecap="round"><g transform="translate(783.0290046381792 526.0000000000001) rotate(0 29.123349830497546 -47.20024452080844)"><path d="M0.58 -0.04 C10.46 -15.69, 49.34 -78.76, 58.82 -94.36 M-0.58 -1.1 C9.27 -16.6, 48.81 -78.1, 58.32 -93.33" stroke="#000000" stroke-width="1" fill="none"></path></g><g transform="translate(783.0290046381792 526.0000000000001) rotate(0 29.123349830497546 -47.20024452080844)"><path d="M51.81 -62.61 C52.06 -72.43, 54.93 -77.37, 56.63 -94.46 M52.55 -64.92 C53.29 -74.01, 55.43 -85.07, 58.49 -92.33" stroke="#000000" stroke-width="1" fill="none"></path></g><g transform="translate(783.0290046381792 526.0000000000001) rotate(0 29.123349830497546 -47.20024452080844)"><path d="M34.49 -73.61 C39.18 -80.66, 46.54 -82.76, 56.63 -94.46 M35.22 -75.92 C41.98 -81.33, 50.06 -88.61, 58.49 -92.33" stroke="#000000" stroke-width="1" fill="none"></path></g></g><g transform="translate(658 537) rotate(0 70.5 51)"><text x="0" y="18.5" font-family="Virgil, Segoe UI Emoji" font-size="20px" fill="#000000" text-anchor="start" style="white-space: pre;" direction="ltr">chanelId, </text><text x="0" y="44" font-family="Virgil, Segoe UI Emoji" font-size="20px" fill="#000000" text-anchor="start" style="white-space: pre;" direction="ltr">input(prompt), </text><text x="0" y="69.5" font-family="Virgil, Segoe UI Emoji" font-size="20px" fill="#000000" text-anchor="start" style="white-space: pre;" direction="ltr">output(url)</text><text x="0" y="95" font-family="Virgil, Segoe UI Emoji" font-size="20px" fill="#000000" text-anchor="start" style="white-space: pre;" direction="ltr">error</text></g><g stroke-linecap="round"><g transform="translate(1059 536) rotate(0 -68.29689574625331 -92.69223682502866)"><path d="M-0.68 0.14 C-23.33 -30.49, -114.3 -152.89, -136.88 -183.67 M1.17 -0.83 C-21.55 -31.84, -114.83 -155.09, -137.76 -185.52" stroke="#000000" stroke-width="1" fill="none"></path></g><g transform="translate(1059 536) rotate(0 -68.29689574625331 -92.69223682502866)"><path d="M-112.35 -169.01 C-117.31 -171.49, -124.3 -174.65, -136.1 -187.35 M-112.01 -169.37 C-120.35 -173.31, -127.57 -178.8, -137.38 -185.84" stroke="#000000" stroke-width="1" fill="none"></path></g><g transform="translate(1059 536) rotate(0 -68.29689574625331 -92.69223682502866)"><path d="M-128.73 -156.64 C-130.09 -161.76, -133.48 -167.63, -136.1 -187.35 M-128.39 -157 C-131.99 -164.48, -134.5 -173.53, -137.38 -185.84" stroke="#000000" stroke-width="1" fill="none"></path></g></g><g transform="translate(1062 565) rotate(0 68 38.5)"><text x="0" y="17.666666666666668" font-family="Virgil, Segoe UI Emoji" font-size="20px" fill="#000000" text-anchor="start" style="white-space: pre;" direction="ltr">id, </text><text x="0" y="43.333333333333336" font-family="Virgil, Segoe UI Emoji" font-size="20px" fill="#000000" text-anchor="start" style="white-space: pre;" direction="ltr">input(prompt) </text><text x="0" y="69" font-family="Virgil, Segoe UI Emoji" font-size="20px" fill="#000000" text-anchor="start" style="white-space: pre;" direction="ltr"></text></g></svg>